<svg width="76" height="79" viewBox="0 0 76 79" fill="none" xmlns="http://www.w3.org/2000/svg">
<path d="M4.19851 58.0909V69H5.76456V61.1005H5.86577L9.0831 68.984H10.3828L13.6001 61.1058H13.7013V69H15.2674V58.0909H13.2699L9.79688 66.571H9.66903L6.19602 58.0909H4.19851ZM19.9136 69.1811C21.2666 69.1811 22.0283 68.494 22.3319 67.8814H22.3959V69H23.9513V63.5668C23.9513 61.1857 22.0763 60.7116 20.7765 60.7116C19.2957 60.7116 17.9321 61.3082 17.3994 62.7997L18.8962 63.1406C19.1306 62.56 19.7272 62.0007 20.7979 62.0007C21.8259 62.0007 22.3532 62.5387 22.3532 63.4656V63.5028C22.3532 64.0835 21.7567 64.0728 20.2865 64.2433C18.7364 64.4244 17.1491 64.8292 17.1491 66.6882C17.1491 68.2969 18.3582 69.1811 19.9136 69.1811ZM20.2599 67.9027C19.3596 67.9027 18.7098 67.4979 18.7098 66.7095C18.7098 65.8572 19.4662 65.5536 20.3877 65.4311C20.9044 65.3619 22.1295 65.2234 22.3586 64.9943V66.049C22.3586 67.0185 21.5862 67.9027 20.2599 67.9027ZM32.2037 62.8157C31.8734 61.5426 30.8773 60.7116 29.1088 60.7116C27.2605 60.7116 25.9501 61.6864 25.9501 63.1353C25.9501 64.2965 26.6532 65.0689 28.1873 65.4098L29.5723 65.7134C30.3606 65.8892 30.7282 66.2408 30.7282 66.7521C30.7282 67.386 30.0517 67.8814 29.0076 67.8814C28.0542 67.8814 27.4416 67.4712 27.2498 66.6669L25.7104 66.9013C25.9767 68.3501 27.1806 69.1651 29.0183 69.1651C30.9945 69.1651 32.3635 68.1158 32.3635 66.6349C32.3635 65.479 31.6284 64.7653 30.1262 64.419L28.8265 64.1207C27.9263 63.9077 27.5375 63.604 27.5428 63.0501C27.5375 62.4215 28.2193 61.9741 29.1248 61.9741C30.1156 61.9741 30.5737 62.5227 30.7601 63.0714L32.2037 62.8157ZM37.561 69.1651C39.4946 69.1651 40.7464 68.0039 40.9221 66.4112H39.3721C39.1697 67.2955 38.4825 67.8175 37.5716 67.8175C36.224 67.8175 35.3557 66.6935 35.3557 64.9091C35.3557 63.1566 36.24 62.054 37.5716 62.054C38.5837 62.054 39.2016 62.6932 39.3721 63.4602H40.9221C40.7517 61.8089 39.404 60.7116 37.545 60.7116C35.2385 60.7116 33.7471 62.4482 33.7471 64.9464C33.7471 67.4126 35.1853 69.1651 37.561 69.1651ZM47.8082 65.6069C47.8136 66.9972 46.7802 67.6577 45.8853 67.6577C44.8999 67.6577 44.218 66.9439 44.218 65.8306V60.8182H42.6254V66.0224C42.6254 68.0518 43.7386 69.1065 45.31 69.1065C46.5405 69.1065 47.3768 68.4567 47.755 67.5831H47.8402V69H49.4062V60.8182H47.8082V65.6069ZM53.1389 58.0909H51.5463V69H53.1389V58.0909ZM55.2816 69H56.8743V60.8182H55.2816V69ZM56.0859 59.5558C56.6346 59.5558 57.0927 59.1296 57.0927 58.6076C57.0927 58.0856 56.6346 57.6541 56.0859 57.6541C55.532 57.6541 55.0792 58.0856 55.0792 58.6076C55.0792 59.1296 55.532 59.5558 56.0859 59.5558ZM60.6096 64.142C60.6096 62.837 61.4086 62.0913 62.5166 62.0913C63.5979 62.0913 64.2531 62.7997 64.2531 63.9876V69H65.8458V63.7958C65.8458 61.7717 64.7325 60.7116 63.0599 60.7116C61.8295 60.7116 61.0251 61.2816 60.6469 62.1499H60.5457V60.8182H59.017V69H60.6096V64.142ZM71.4282 69.1651C73.7346 69.1651 75.2421 67.4766 75.2421 64.9464C75.2421 62.4002 73.7346 60.7116 71.4282 60.7116C69.1217 60.7116 67.6143 62.4002 67.6143 64.9464C67.6143 67.4766 69.1217 69.1651 71.4282 69.1651ZM71.4335 67.8281C69.926 67.8281 69.2229 66.5124 69.2229 64.9411C69.2229 63.375 69.926 62.0433 71.4335 62.0433C72.9303 62.0433 73.6334 63.375 73.6334 64.9411C73.6334 66.5124 72.9303 67.8281 71.4335 67.8281Z" fill="#33313F"/>
<path opacity="0.08" d="M63 25C63 41.6667 54.6667 50 38 50C21.3333 50 13 41.6667 13 25C13 8.33333 21.3333 0 38 0C54.6667 0 63 8.33333 63 25Z" fill="black"/>
<g filter="url(#filter0_d)">
<path d="M59.875 25C59.875 39.5833 52.5833 46.875 38 46.875C23.4167 46.875 16.125 39.5833 16.125 25C16.125 10.4167 23.4167 3.125 38 3.125C52.5833 3.125 59.875 10.4167 59.875 25Z" fill="white"/>
</g>
<rect x="28.65" y="15.65" width="18.7" height="18.7" rx="1.35" stroke="#888686" stroke-width="1.3"/>
<defs>
<filter id="filter0_d" x="0.125" y="3.125" width="75.75" height="75.75" filterUnits="userSpaceOnUse" color-interpolation-filters="sRGB">
<feFlood flood-opacity="0" result="BackgroundImageFix"/>
<feColorMatrix in="SourceAlpha" type="matrix" values="0 0 0 0 0 0 0 0 0 0 0 0 0 0 0 0 0 0 127 0"/>
<feMorphology radius="8" operator="erode" in="SourceAlpha" result="effect1_dropShadow"/>
<feOffset dy="16"/>
<feGaussianBlur stdDeviation="12"/>
<feColorMatrix type="matrix" values="0 0 0 0 0.295833 0 0 0 0 0.279809 0 0 0 0 0.283655 0 0 0 0.05 0"/>
<feBlend mode="normal" in2="BackgroundImageFix" result="effect1_dropShadow"/>
<feBlend mode="normal" in="SourceGraphic" in2="effect1_dropShadow" result="shape"/>
</filter>
</defs>
</svg>
