<svg width="50" height="50" viewBox="0 0 50 50" fill="none" xmlns="http://www.w3.org/2000/svg">
<path opacity="0.08" d="M50 25C50 41.6667 41.6667 50 25 50C8.33333 50 0 41.6667 0 25C0 8.33333 8.33333 0 25 0C41.6667 0 50 8.33333 50 25Z" fill="black"/>
<path d="M46.875 25C46.875 39.5833 39.5833 46.875 25 46.875C10.4167 46.875 3.125 39.5833 3.125 25C3.125 10.4167 10.4167 3.125 25 3.125C39.5833 3.125 46.875 10.4167 46.875 25Z" fill="white"/>
<rect x="13.65" y="13.65" width="22.7" height="22.7" rx="11.35" stroke="#888686" stroke-width="1.3"/>
<path d="M26.9612 32.0936L25.7767 34.4529L25.3299 34.2286L25 34.8856L24.6701 34.2286L24.2233 34.4529L22.8252 31.6682L23.2721 31.4438L21.9323 28.7751L21.4854 28.9994L19.7767 25.5959L20.2235 25.3715L18.7478 22.4321L18.3009 22.6564L17.1165 20.2971L17.5633 20.0727L17.1502 19.25L17.8932 19.25L17.8932 18.75L20.6893 18.75L20.6893 19.25L23.3689 19.25L23.3689 18.75L26.7864 18.75L26.7864 19.25L29.7379 19.25L29.7379 18.75L32.1068 18.75L32.1068 19.25L32.8498 19.25L32.4367 20.0727L32.8836 20.2971L31.4855 23.0818L31.0386 22.8575L29.6988 25.5262L30.1457 25.7506L28.4369 29.1541L27.9901 28.9298L26.5143 31.8693L26.9612 32.0936Z" stroke="#888686" stroke-dasharray="160 122 152 176 138 144"/>
</svg>
