<svg width="50" height="50" viewBox="0 0 50 50" fill="none" xmlns="http://www.w3.org/2000/svg">
<path opacity="0.08" d="M50 25C50 41.6667 41.6667 50 25 50C8.33333 50 0 41.6667 0 25C0 8.33333 8.33333 0 25 0C41.6667 0 50 8.33333 50 25Z" fill="black"/>
<path d="M46.875 25C46.875 39.5833 39.5833 46.875 25 46.875C10.4167 46.875 3.125 39.5833 3.125 25C3.125 10.4167 10.4167 3.125 25 3.125C39.5833 3.125 46.875 10.4167 46.875 25Z" fill="white"/>
<rect x="13.65" y="13.65" width="22.7" height="22.7" stroke="#888686" stroke-width="1.3"/>
<path d="M27.3534 30.4142L25.932 33.1839L25.4872 32.9556L25 33.9049L24.5128 32.9556L24.068 33.1839L22.3903 29.9148L22.8351 29.6865L21.2273 26.5537L20.7825 26.782L18.732 22.7864L19.1768 22.5581L17.4059 19.1075L16.9611 19.3358L15.5397 16.5661L15.9846 16.3379L15.4263 15.25L16.4718 15.25L16.4718 14.75L19.8271 14.75L19.8271 15.25L23.0427 15.25L23.0427 14.75L27.1437 14.75L27.1437 15.25L30.6855 15.25L30.6855 14.75L33.5282 14.75L33.5282 15.25L34.5737 15.25L34.0154 16.3379L34.4603 16.5661L32.7826 19.8352L32.3377 19.6069L30.73 22.7398L31.1748 22.9681L29.1243 26.9636L28.6795 26.7353L26.9086 30.1859L27.3534 30.4142Z" stroke="#888686" stroke-miterlimit="16" stroke-dasharray="160 122 152 176 138 144"/>
</svg>
