<svg width="50" height="50" viewBox="0 0 50 50" fill="none" xmlns="http://www.w3.org/2000/svg">
<path opacity="0.08" d="M50 25C50 41.6667 41.6667 50 25 50C8.33333 50 0 41.6667 0 25C0 8.33333 8.33333 0 25 0C41.6667 0 50 8.33333 50 25Z" fill="black"/>
<path d="M46.875 25C46.875 39.5833 39.5833 46.875 25 46.875C10.4167 46.875 3.125 39.5833 3.125 25C3.125 10.4167 10.4167 3.125 25 3.125C39.5833 3.125 46.875 10.4167 46.875 25Z" fill="white"/>
<rect x="13.65" y="13.65" width="22.7" height="22.7" stroke="#888686" stroke-width="1.3"/>
<path d="M33.7114 16.75L25 33.8961L16.2886 16.75L33.7114 16.75Z" stroke="#888686"/>
</svg>
