<svg width="50" height="50" viewBox="0 0 50 50" fill="none" xmlns="http://www.w3.org/2000/svg">
<path opacity="0.08" d="M50 25C50 41.6667 41.6667 50 25 50C8.33333 50 0 41.6667 0 25C0 8.33333 8.33333 0 25 0C41.6667 0 50 8.33333 50 25Z" fill="#696566"/>
<path d="M46.875 25C46.875 39.5833 39.5833 46.875 25 46.875C10.4167 46.875 3.125 39.5833 3.125 25C3.125 10.4167 10.4167 3.125 25 3.125C39.5833 3.125 46.875 10.4167 46.875 25Z" fill="white"/>
<path d="M23.7679 15C24.5377 13.6667 26.4623 13.6667 27.2321 15L35.4593 29.25C36.2291 30.5833 35.2668 32.25 33.7272 32.25H17.2728C15.7332 32.25 14.7709 30.5833 15.5407 29.25L23.7679 15Z" fill="black"/>
</svg>
