<svg width="313" height="242" viewBox="0 0 313 242" fill="none" xmlns="http://www.w3.org/2000/svg">
<g clip-path="url(#clip0)">
<path opacity="0.1" d="M97.7311 242C134.703 242 164.674 237.452 164.674 231.842C164.674 226.232 134.703 221.685 97.7311 221.685C60.7595 221.685 30.7881 226.232 30.7881 231.842C30.7881 237.452 60.7595 242 97.7311 242Z" fill="#F50057"/>
<path opacity="0.1" d="M96.6482 10.6763C107.266 1.3087 123.936 -0.609967 139.111 0.146212C186.769 2.49375 229.784 25.2553 267.005 51.0078C280.478 60.333 293.742 70.3778 302.486 83.2187C320.289 109.352 315.006 145.558 290.253 167.087C281.831 174.423 271.622 180.029 261.142 185.007C242.505 193.858 222.397 200.963 201.246 202.986C186.163 204.428 170.894 203.254 155.899 201.242C114.003 195.621 72.8785 183.184 38.4121 161.918C23.2956 152.601 9.04735 140.993 2.81531 125.901C-3.41673 110.808 0.560391 91.6834 16.0094 82.7532C22.3937 79.0569 30.0266 77.3922 37.4988 75.8206C48.4916 73.5154 59.676 71.2412 69.6033 66.5546C79.8547 61.7099 91.9946 52.3452 89.9652 41.6289C87.7864 30.1253 86.0332 20.027 96.6482 10.6763Z" fill="#F50057"/>
<path d="M259.55 24.9596C261.455 37.5325 256.153 48.7651 256.153 48.7651C256.153 48.7651 247.762 39.6148 245.851 27.0419C244.783 19.988 245.981 13.363 247.238 8.89925C247.397 8.31956 247.72 7.79843 248.169 7.39914C248.617 6.99985 249.172 6.73959 249.766 6.64995C250.36 6.56031 250.967 6.64516 251.513 6.89418C252.06 7.1432 252.522 7.5457 252.844 8.05278C255.373 11.9353 258.482 17.9085 259.55 24.9596Z" fill="#F50057"/>
<path d="M294.98 44.9983C296.868 44.9895 298.749 45.2276 300.575 45.7065C303.65 46.4965 303.698 50.8559 300.64 51.7136C298.825 52.2313 296.95 52.5102 295.062 52.5431C288.148 52.6193 282.502 48.9062 282.502 48.9062C282.502 48.9062 288.066 45.0745 294.98 44.9983Z" fill="#F50057"/>
<path d="M275.537 25.885C269.102 32.9643 267.741 42.2163 267.741 42.2163C267.741 42.2163 276.811 39.9872 283.243 32.9051C286.226 29.6236 288.12 25.8766 289.292 22.8011C289.514 22.2189 289.556 21.5832 289.412 20.9769C289.269 20.3706 288.946 19.8216 288.486 19.4015C288.026 18.9814 287.451 18.7096 286.834 18.6214C286.218 18.5333 285.589 18.6329 285.03 18.9073C282.065 20.3661 278.519 22.6036 275.537 25.885Z" fill="#F50057"/>
<path d="M283.461 24.5504H149.744C146.661 24.5504 144.163 27.0517 144.163 30.1371V193.61C144.163 196.696 146.661 199.197 149.744 199.197H283.461C286.543 199.197 289.041 196.696 289.041 193.61V30.1371C289.041 27.0517 286.543 24.5504 283.461 24.5504Z" fill="#464353"/>
<path opacity="0.1" d="M276.544 42.1683H156.661V181.579H276.544V42.1683Z" fill="#F50057"/>
<path d="M216.602 195.879C219.42 195.879 221.704 193.592 221.704 190.772C221.704 187.951 219.42 185.665 216.602 185.665C213.785 185.665 211.5 187.951 211.5 190.772C211.5 193.592 213.785 195.879 216.602 195.879Z" fill="white"/>
<path d="M216.602 37.1769C216.125 37.1769 215.66 37.0354 215.263 36.7704C214.867 36.5053 214.558 36.1285 214.376 35.6877C214.193 35.2469 214.145 34.7618 214.238 34.2938C214.331 33.8259 214.561 33.396 214.898 33.0586C215.235 32.7213 215.664 32.4915 216.132 32.3984C216.599 32.3053 217.084 32.3531 217.524 32.5357C217.965 32.7183 218.341 33.0275 218.606 33.4242C218.871 33.8209 219.012 34.2874 219.012 34.7645C219.011 35.4038 218.756 36.0166 218.305 36.4687C217.853 36.9208 217.241 37.1754 216.602 37.1769Z" fill="white"/>
<path d="M216.602 32.4931C217.051 32.4931 217.49 32.6263 217.863 32.8759C218.236 33.1255 218.527 33.4802 218.698 33.8953C218.87 34.3103 218.915 34.767 218.828 35.2076C218.74 35.6482 218.524 36.0529 218.207 36.3706C217.889 36.6882 217.485 36.9046 217.045 36.9922C216.605 37.0798 216.148 37.0349 215.734 36.863C215.319 36.691 214.965 36.3999 214.716 36.0264C214.466 35.6529 214.333 35.2137 214.333 34.7645C214.334 34.1623 214.573 33.585 214.999 33.1592C215.424 32.7334 216.001 32.4939 216.602 32.4931ZM216.602 32.211C216.097 32.2082 215.602 32.3556 215.181 32.6344C214.76 32.9133 214.431 33.3111 214.235 33.7775C214.04 34.2438 213.988 34.7577 214.084 35.254C214.181 35.7502 214.423 36.2065 214.779 36.5651C215.135 36.9236 215.59 37.1682 216.085 37.2679C216.58 37.3675 217.094 37.3178 217.561 37.1249C218.028 36.9321 218.427 36.6048 218.708 36.1846C218.989 35.7644 219.139 35.2701 219.139 34.7645C219.141 34.4298 219.077 34.0981 218.95 33.7884C218.823 33.4786 218.637 33.197 218.401 32.9597C218.165 32.7224 217.885 32.5341 217.576 32.4056C217.267 32.2771 216.936 32.211 216.602 32.211Z" fill="white"/>
<path d="M185.882 85.3552H163.442C162.773 85.3552 162.23 85.8984 162.23 86.5685V117.978C162.23 118.648 162.773 119.191 163.442 119.191H185.882C186.551 119.191 187.094 118.648 187.094 117.978V86.5685C187.094 85.8984 186.551 85.3552 185.882 85.3552Z" fill="white" stroke="white" stroke-miterlimit="10"/>
<path opacity="0.5" d="M182.75 93.882H166.574C165.462 93.882 164.561 94.7839 164.561 95.8965V102.603C164.561 103.716 165.462 104.618 166.574 104.618H182.75C183.862 104.618 184.763 103.716 184.763 102.603V95.8965C184.763 94.7839 183.862 93.882 182.75 93.882Z" fill="#F50057"/>
<path d="M180.07 108.997H169.254C168.991 108.997 168.778 109.211 168.778 109.474V110.188C168.778 110.451 168.991 110.665 169.254 110.665H180.07C180.333 110.665 180.546 110.451 180.546 110.188V109.474C180.546 109.211 180.333 108.997 180.07 108.997Z" fill="#F50057"/>
<path d="M227.916 85.3552H205.477C204.808 85.3552 204.265 85.8984 204.265 86.5685V117.978C204.265 118.648 204.808 119.191 205.477 119.191H227.916C228.586 119.191 229.128 118.648 229.128 117.978V86.5685C229.128 85.8984 228.586 85.3552 227.916 85.3552Z" fill="white" stroke="white" stroke-miterlimit="10"/>
<path opacity="0.5" d="M222.307 90.6399H211.216C210.988 90.6399 210.804 90.8243 210.804 91.0518V96.5595C210.804 96.787 210.988 96.9715 211.216 96.9715H222.307C222.534 96.9715 222.719 96.787 222.719 96.5595V91.0518C222.719 90.8243 222.534 90.6399 222.307 90.6399Z" fill="#F50057"/>
<path d="M223.795 102.905H209.539C209.275 102.905 209.062 103.119 209.062 103.382V104.096C209.062 104.359 209.275 104.573 209.539 104.573H223.795C224.058 104.573 224.272 104.359 224.272 104.096V103.382C224.272 103.119 224.058 102.905 223.795 102.905Z" fill="#F50057"/>
<path d="M223.795 106.015H209.539C209.275 106.015 209.062 106.228 209.062 106.491V107.205C209.062 107.469 209.275 107.682 209.539 107.682H223.795C224.058 107.682 224.272 107.469 224.272 107.205V106.491C224.272 106.228 224.058 106.015 223.795 106.015Z" fill="#F50057"/>
<path d="M269.762 61.3182H247.323C246.653 61.3182 246.111 61.8614 246.111 62.5315V93.9412C246.111 94.6112 246.653 95.1544 247.323 95.1544H269.762C270.431 95.1544 270.974 94.6112 270.974 93.9412V62.5315C270.974 61.8614 270.431 61.3182 269.762 61.3182Z" fill="white" stroke="white" stroke-miterlimit="10"/>
<path opacity="0.5" d="M266.225 66.5692H250.86C250.633 66.5692 250.448 66.7537 250.448 66.9812V73.7191C250.448 73.9466 250.633 74.131 250.86 74.131H266.225C266.452 74.131 266.636 73.9466 266.636 73.7191V66.9812C266.636 66.7537 266.452 66.5692 266.225 66.5692Z" fill="#F50057"/>
<path opacity="0.5" d="M266.225 77.5592H250.86C250.633 77.5592 250.448 77.7436 250.448 77.9712V84.7091C250.448 84.9366 250.633 85.121 250.86 85.121H266.225C266.452 85.121 266.636 84.9366 266.636 84.7091V77.9712C266.636 77.7436 266.452 77.5592 266.225 77.5592Z" fill="#F50057"/>
<path d="M253.386 91.2156H250.234C249.638 91.2156 249.155 91.6994 249.155 92.2962V92.4684C249.155 93.0652 249.638 93.549 250.234 93.549H253.386C253.982 93.549 254.465 93.0652 254.465 92.4684V92.2962C254.465 91.6994 253.982 91.2156 253.386 91.2156Z" fill="#F50057"/>
<path d="M260.119 91.2156H256.968C256.372 91.2156 255.889 91.6994 255.889 92.2962V92.4684C255.889 93.0652 256.372 93.549 256.968 93.549H260.119C260.715 93.549 261.199 93.0652 261.199 92.4684V92.2962C261.199 91.6994 260.715 91.2156 260.119 91.2156Z" fill="#F50057"/>
<path d="M266.853 91.2156H263.702C263.106 91.2156 262.622 91.6994 262.622 92.2962V92.4684C262.622 93.0652 263.106 93.549 263.702 93.549H266.853C267.449 93.549 267.933 93.0652 267.933 92.4684V92.2962C267.933 91.6994 267.449 91.2156 266.853 91.2156Z" fill="#F50057"/>
<path d="M269.703 109.392H247.263C246.594 109.392 246.051 109.935 246.051 110.605V142.015C246.051 142.685 246.594 143.228 247.263 143.228H269.703C270.372 143.228 270.915 142.685 270.915 142.015V110.605C270.915 109.935 270.372 109.392 269.703 109.392Z" fill="white" stroke="white" stroke-miterlimit="10"/>
<path opacity="0.5" d="M254.989 113.348H248.382C248.155 113.348 247.971 113.532 247.971 113.76V120.498C247.971 120.725 248.155 120.91 248.382 120.91H254.989C255.217 120.91 255.401 120.725 255.401 120.498V113.76C255.401 113.532 255.217 113.348 254.989 113.348Z" fill="#F50057"/>
<path d="M265.613 125.515H251.356C251.093 125.515 250.88 125.728 250.88 125.991V126.705C250.88 126.969 251.093 127.182 251.356 127.182H265.613C265.876 127.182 266.089 126.969 266.089 126.705V125.991C266.089 125.728 265.876 125.515 265.613 125.515Z" fill="#F50057"/>
<path d="M265.613 128.886H251.356C251.093 128.886 250.88 129.1 250.88 129.363V130.077C250.88 130.34 251.093 130.554 251.356 130.554H265.613C265.876 130.554 266.089 130.34 266.089 130.077V129.363C266.089 129.1 265.876 128.886 265.613 128.886Z" fill="#F50057"/>
<path d="M265.613 132.258H251.356C251.093 132.258 250.88 132.472 250.88 132.735V133.449C250.88 133.712 251.093 133.926 251.356 133.926H265.613C265.876 133.926 266.089 133.712 266.089 133.449V132.735C266.089 132.472 265.876 132.258 265.613 132.258Z" fill="#F50057"/>
<path d="M201.398 101.466L201.018 101.65L197.934 103.134L197.652 103.266C197.634 103.275 197.613 103.28 197.592 103.281C197.572 103.281 197.551 103.278 197.532 103.27C197.513 103.262 197.495 103.251 197.48 103.236C197.466 103.221 197.454 103.204 197.447 103.185C197.443 103.166 197.443 103.147 197.447 103.128V102.251C197.447 102.211 197.431 102.173 197.403 102.145C197.375 102.117 197.337 102.101 197.297 102.101H189.802C189.762 102.101 189.724 102.085 189.696 102.057C189.667 102.029 189.651 101.991 189.65 101.952V100.713C189.651 100.673 189.667 100.635 189.696 100.607C189.724 100.579 189.762 100.563 189.802 100.563H197.306C197.346 100.563 197.383 100.546 197.411 100.518C197.439 100.489 197.455 100.451 197.455 100.411V99.5137C197.452 99.495 197.452 99.476 197.455 99.4573C197.463 99.4382 197.475 99.421 197.489 99.4066C197.504 99.3922 197.522 99.381 197.541 99.3736C197.56 99.3662 197.581 99.3628 197.601 99.3636C197.622 99.3644 197.642 99.3694 197.661 99.3783L197.943 99.5109L201.018 101.009L201.398 101.195C201.424 101.207 201.446 101.227 201.461 101.251C201.476 101.275 201.484 101.302 201.484 101.331C201.484 101.359 201.476 101.387 201.461 101.411C201.446 101.435 201.424 101.454 201.398 101.466Z" fill="white" stroke="white" stroke-miterlimit="10"/>
<path d="M243.123 93.8566L242.875 94.198L240.857 96.9519L240.679 97.1973C240.666 97.2136 240.651 97.2272 240.633 97.2373C240.615 97.2474 240.595 97.2539 240.574 97.2562C240.554 97.2586 240.533 97.2569 240.513 97.2511C240.494 97.2453 240.475 97.2357 240.459 97.2227C240.445 97.2102 240.433 97.1948 240.425 97.1776L240.014 96.4045C239.995 96.369 239.963 96.3424 239.924 96.3303C239.886 96.3182 239.844 96.3215 239.808 96.3396L233.184 99.8694C233.167 99.8787 233.148 99.8845 233.128 99.8865C233.109 99.8884 233.089 99.8864 233.07 99.8807C233.051 99.8749 233.033 99.8654 233.018 99.8528C233.003 99.8402 232.991 99.8248 232.981 99.8073L232.401 98.7097C232.391 98.6923 232.386 98.6732 232.384 98.6536C232.382 98.6339 232.384 98.6141 232.389 98.5952C232.395 98.5763 232.405 98.5587 232.417 98.5435C232.43 98.5283 232.445 98.5157 232.463 98.5065L239.087 94.9824C239.104 94.9732 239.119 94.9606 239.132 94.9454C239.145 94.9302 239.154 94.9127 239.16 94.8938C239.166 94.8749 239.168 94.855 239.166 94.8354C239.164 94.8157 239.158 94.7967 239.149 94.7793L238.729 93.9864C238.718 93.9705 238.712 93.9519 238.712 93.9328C238.709 93.9122 238.71 93.8912 238.716 93.8712C238.722 93.8513 238.732 93.8328 238.746 93.8171C238.76 93.8013 238.776 93.7887 238.795 93.7799C238.814 93.7712 238.835 93.7665 238.855 93.7663H239.157L242.573 93.6422L242.996 93.6281C243.023 93.6281 243.049 93.6352 243.072 93.6487C243.095 93.6622 243.114 93.6817 243.127 93.705C243.14 93.7283 243.146 93.7546 243.145 93.7813C243.145 93.808 243.137 93.834 243.123 93.8566Z" fill="white" stroke="white" stroke-miterlimit="10"/>
<path d="M243.1 108.32H242.68H239.267H238.965C238.945 108.32 238.924 108.316 238.905 108.308C238.886 108.299 238.869 108.287 238.855 108.272C238.841 108.257 238.831 108.239 238.824 108.22C238.817 108.2 238.814 108.18 238.816 108.159C238.817 108.14 238.821 108.122 238.83 108.105L239.208 107.313C239.216 107.295 239.221 107.276 239.222 107.256C239.223 107.236 239.221 107.216 239.214 107.198C239.208 107.179 239.197 107.162 239.184 107.147C239.171 107.133 239.155 107.121 239.137 107.112L232.372 103.862C232.336 103.844 232.308 103.813 232.295 103.775C232.282 103.737 232.284 103.695 232.302 103.659L232.838 102.544C232.846 102.526 232.857 102.51 232.872 102.496C232.887 102.483 232.904 102.473 232.922 102.466C232.941 102.459 232.961 102.457 232.981 102.458C233.001 102.459 233.02 102.465 233.038 102.474L239.802 105.727C239.839 105.744 239.88 105.746 239.918 105.732C239.956 105.719 239.987 105.692 240.005 105.656L240.394 104.847C240.405 104.823 240.421 104.803 240.442 104.788C240.462 104.773 240.486 104.764 240.512 104.761C240.537 104.758 240.563 104.762 240.586 104.772C240.61 104.782 240.63 104.798 240.645 104.818L240.834 105.053L242.956 107.739L243.219 108.072C243.238 108.094 243.25 108.121 243.255 108.15C243.259 108.179 243.254 108.208 243.241 108.235C243.229 108.261 243.209 108.284 243.184 108.299C243.158 108.314 243.13 108.321 243.1 108.32Z" fill="white" stroke="white" stroke-miterlimit="10"/>
<path d="M119.564 171.17L119.542 171.997L118.104 222.805H115.686L116.873 171.997L116.895 171.043L119.564 171.17Z" fill="#504F60"/>
<path opacity="0.1" d="M119.564 171.17L119.542 171.997L118.104 222.805H115.686L116.873 171.997L116.895 171.043L119.564 171.17Z" fill="black"/>
<path d="M133.559 214.21L131.749 214.205L104.845 214.148L103.414 214.146L104.175 211.79H133.367L133.559 214.21Z" fill="#504F60"/>
<path opacity="0.1" d="M119.564 171.17L119.542 171.997H116.873L116.895 171.043L119.564 171.17Z" fill="black"/>
<path d="M120.585 169.929H116.1V171.616H120.585V169.929Z" fill="#504F60"/>
<path opacity="0.1" d="M105.085 211.79L104.845 214.148L103.414 214.146L104.175 211.79H105.085Z" fill="black"/>
<path d="M108.947 169.898L108.87 170.628L102.903 229.551L100.169 229.424L106.458 170.628L106.528 169.96L108.947 169.898Z" fill="#504F60"/>
<path opacity="0.1" d="M133.559 214.21L131.749 214.205L131.504 211.79H133.367L133.559 214.21Z" fill="black"/>
<path d="M136.423 229.424L133.686 229.551L127.719 170.628L127.645 169.898L130.061 169.96L130.131 170.628L136.423 229.424Z" fill="#504F60"/>
<path d="M148.061 111.799H87.7672V169.672H148.061V111.799Z" fill="white"/>
<path d="M160.192 111.799H75.7062C75.0633 111.799 74.5421 112.321 74.5421 112.964V168.507C74.5421 169.15 75.0633 169.672 75.7062 169.672H160.192C160.835 169.672 161.357 169.15 161.357 168.507V112.964C161.357 112.321 160.835 111.799 160.192 111.799Z" fill="white"/>
<path d="M119.088 92.4458V106.421H116.737V92.4458C116.737 92.1337 116.861 91.8344 117.082 91.6138C117.302 91.3931 117.601 91.2692 117.913 91.2692C118.224 91.2692 118.523 91.3931 118.744 91.6138C118.964 91.8344 119.088 92.1337 119.088 92.4458Z" fill="#504F60"/>
<path opacity="0.1" d="M119.091 105.148H116.737V106.421H119.091V105.148Z" fill="black"/>
<path d="M120.013 106.102V110.718H115.816V106.102C115.816 105.953 115.875 105.809 115.981 105.703C116.086 105.597 116.23 105.538 116.379 105.538H119.432C119.507 105.536 119.582 105.548 119.653 105.576C119.723 105.603 119.787 105.644 119.841 105.697C119.896 105.75 119.939 105.813 119.968 105.882C119.997 105.952 120.013 106.027 120.013 106.102Z" fill="#504F60"/>
<path opacity="0.1" d="M117.913 109.35C118.405 109.35 118.803 108.951 118.803 108.458C118.803 107.966 118.405 107.567 117.913 107.567C117.421 107.567 117.022 107.966 117.022 108.458C117.022 108.951 117.421 109.35 117.913 109.35Z" fill="black"/>
<path d="M117.913 109.158C118.405 109.158 118.803 108.759 118.803 108.266C118.803 107.774 118.405 107.375 117.913 107.375C117.421 107.375 117.022 107.774 117.022 108.266C117.022 108.759 117.421 109.158 117.913 109.158Z" fill="#3F3D56"/>
<path opacity="0.1" d="M120.013 110.146H115.816V110.718H120.013V110.146Z" fill="black"/>
<path opacity="0.1" d="M121.729 110.91H114.096V112.183H121.729V110.91Z" fill="black"/>
<path d="M121.729 110.526H114.096V111.799H121.729V110.526Z" fill="#504F60"/>
<path opacity="0.1" d="M102.776 168.165H134.227C134.676 168.165 135.106 168.344 135.423 168.661C135.74 168.979 135.918 169.409 135.918 169.858H101.091C101.091 169.41 101.268 168.98 101.584 168.663C101.9 168.346 102.329 168.167 102.776 168.165Z" fill="black"/>
<path opacity="0.1" d="M106.528 169.96L108.947 169.898L108.87 170.628H106.458L106.528 169.96Z" fill="black"/>
<path opacity="0.1" d="M120.585 169.929H116.1V170.628H120.585V169.929Z" fill="black"/>
<path opacity="0.1" d="M130.131 170.628H127.719L127.645 169.898L130.061 169.96L130.131 170.628Z" fill="black"/>
<path d="M102.776 168.56H134.227C134.676 168.56 135.106 168.739 135.423 169.056C135.74 169.374 135.918 169.804 135.918 170.253H101.091C101.091 169.804 101.269 169.374 101.586 169.056C101.903 168.739 102.334 168.56 102.782 168.56H102.776Z" fill="#504F60"/>
<path d="M145.955 118.596C146.019 118.586 146.085 118.591 146.146 118.61C146.208 118.63 146.264 118.663 146.311 118.708C146.358 118.753 146.393 118.808 146.415 118.868C146.437 118.929 146.445 118.994 146.437 119.059C146.029 123.009 146.291 127.055 146.733 130.997C146.939 132.8 147.218 134.707 148.016 136.045C148.067 136.126 148.089 136.221 148.079 136.317C148.068 136.412 148.027 136.501 147.96 136.569C147.737 136.743 147.457 136.826 147.176 136.804L134.596 136.874C134.532 136.875 134.469 136.86 134.412 136.833C134.354 136.805 134.304 136.765 134.264 136.715C134.224 136.665 134.197 136.606 134.183 136.544C134.169 136.482 134.17 136.417 134.185 136.355C135.197 132.038 134.98 127.326 134.574 122.848C134.374 120.644 134.258 119.462 135.901 119.307C137.593 119.155 139.284 119.084 140.975 118.943C141.381 118.909 144.634 118.813 145.955 118.596Z" fill="white" stroke="#33313F" stroke-width="3" stroke-miterlimit="10"/>
<path d="M136.33 144.467C136.266 144.457 136.201 144.462 136.139 144.481C136.077 144.501 136.021 144.534 135.974 144.579C135.928 144.624 135.892 144.679 135.87 144.74C135.848 144.8 135.841 144.866 135.848 144.93C136.256 148.88 135.994 152.926 135.549 156.868C135.346 158.671 135.067 160.578 134.269 161.918C134.218 161.999 134.196 162.094 134.206 162.189C134.216 162.284 134.259 162.373 134.326 162.44C134.548 162.614 134.828 162.697 135.109 162.675L147.689 162.748C147.753 162.748 147.816 162.733 147.873 162.705C147.93 162.677 147.98 162.636 148.02 162.586C148.059 162.536 148.087 162.477 148.101 162.415C148.115 162.353 148.115 162.288 148.1 162.226C147.089 157.909 147.306 153.197 147.711 148.719C147.912 146.516 148.027 145.333 146.384 145.178C144.741 145.023 143.001 144.955 141.31 144.814C140.904 144.78 137.652 144.684 136.33 144.467Z" fill="white" stroke="#33313F" stroke-width="3" stroke-miterlimit="10"/>
<path d="M140.025 151.735C141.487 151.667 142.951 151.685 144.411 151.789C144.505 151.798 144.594 151.84 144.662 151.906C144.73 151.973 144.772 152.061 144.783 152.156L144.921 153.31C144.928 153.336 144.928 153.363 144.923 153.389C144.917 153.415 144.905 153.439 144.887 153.459C144.856 153.482 144.818 153.492 144.78 153.488C144.166 153.504 143.551 153.434 142.939 153.488C142.559 153.519 142.181 153.592 141.812 153.634C141.188 153.689 140.561 153.701 139.935 153.668C139.053 153.683 138.174 153.575 137.322 153.346C137.322 153.346 137.373 152.39 137.373 152.3C137.373 151.854 137.358 151.814 137.818 151.803L140.025 151.735Z" stroke="#33313F" stroke-width="2" stroke-miterlimit="10" stroke-linecap="round"/>
<path d="M140.025 156.938C141.487 157.007 142.951 156.988 144.411 156.882C144.505 156.873 144.594 156.831 144.662 156.765C144.73 156.698 144.772 156.61 144.783 156.515L144.921 155.364C144.928 155.338 144.929 155.31 144.923 155.284C144.917 155.257 144.905 155.232 144.887 155.211C144.856 155.189 144.818 155.179 144.78 155.183C144.166 155.166 143.551 155.24 142.939 155.183C142.559 155.155 142.181 155.082 141.812 155.039C141.188 154.983 140.56 154.972 139.935 155.006C139.053 154.99 138.174 155.099 137.322 155.327C137.322 155.327 137.373 156.281 137.373 156.374C137.373 156.82 137.358 156.856 137.818 156.871L140.025 156.938Z" stroke="#33313F" stroke-width="2" stroke-miterlimit="10" stroke-linecap="round"/>
<path d="M140.025 158.976C141.487 158.907 142.951 158.926 144.411 159.032C144.505 159.041 144.594 159.082 144.662 159.149C144.73 159.216 144.772 159.304 144.783 159.399L144.921 160.55C144.928 160.576 144.929 160.604 144.923 160.63C144.917 160.657 144.905 160.682 144.887 160.702C144.856 160.725 144.818 160.735 144.78 160.731C144.166 160.747 143.551 160.674 142.939 160.731C142.559 160.759 142.181 160.835 141.812 160.877C141.188 160.931 140.56 160.942 139.935 160.908C139.053 160.924 138.174 160.817 137.322 160.589C137.322 160.589 137.373 159.633 137.373 159.54C137.373 159.094 137.358 159.057 137.818 159.046L140.025 158.976Z" stroke="#33313F" stroke-width="2" stroke-miterlimit="10" stroke-linecap="round"/>
<path d="M141.877 134.826C142.006 135.136 142.049 135.475 142.001 135.808C142.001 135.834 141.994 135.861 141.981 135.884C141.966 135.899 141.947 135.91 141.926 135.918C141.906 135.925 141.884 135.928 141.863 135.926L139.185 136.03C139.185 136.03 139.334 135.24 139.354 135.184C139.447 134.862 139.681 134.947 139.983 134.93L141.877 134.826Z" fill="white" stroke="#33313F" stroke-width="2" stroke-miterlimit="10" stroke-linecap="round"/>
<path d="M145.922 134.826C146.05 135.136 146.091 135.475 146.043 135.808C146.044 135.834 146.038 135.86 146.026 135.884C146.01 135.899 145.991 135.91 145.971 135.917C145.951 135.925 145.929 135.928 145.907 135.926L143.227 136.03C143.227 136.03 143.379 135.24 143.399 135.184C143.489 134.862 143.723 134.947 144.027 134.93L145.922 134.826Z" fill="white" stroke="#33313F" stroke-width="2" stroke-miterlimit="10" stroke-linecap="round"/>
<path d="M144.307 121.355L144.667 124.459C144.679 124.571 144.669 124.685 144.637 124.793C144.604 124.901 144.551 125.001 144.479 125.088C144.407 125.175 144.319 125.247 144.219 125.299C144.119 125.352 144.01 125.384 143.898 125.393C141.61 125.574 139.311 125.559 137.026 125.348C136.823 125.328 136.634 125.236 136.493 125.088C136.353 124.939 136.271 124.745 136.262 124.541C136.219 123.988 136.138 123.438 136.02 122.896C135.927 122.332 135.825 121.787 136.49 121.621C137.156 121.454 138.066 121.573 138.793 121.559C139.665 121.542 140.534 121.517 141.401 121.485C141.643 121.485 144.307 121.341 144.307 121.355Z" stroke="#33313F" stroke-width="3" stroke-miterlimit="10"/>
<path d="M144.307 132.568L144.662 129.465C144.674 129.352 144.663 129.239 144.631 129.131C144.599 129.023 144.545 128.923 144.473 128.836C144.402 128.749 144.313 128.677 144.213 128.624C144.114 128.572 144.004 128.54 143.892 128.531C141.605 128.35 139.306 128.364 137.02 128.573C136.817 128.593 136.627 128.685 136.487 128.834C136.346 128.983 136.264 129.178 136.256 129.383C136.214 129.936 136.133 130.486 136.014 131.028C135.921 131.592 135.82 132.137 136.485 132.303C137.15 132.47 138.06 132.351 138.788 132.365C139.659 132.382 140.527 132.405 141.395 132.439C141.643 132.447 144.307 132.591 144.307 132.568Z" stroke="#33313F" stroke-width="3" stroke-miterlimit="10"/>
<path d="M140.685 146.555C140.591 147.588 140.531 148.622 140.507 149.659C139.472 149.65 138.442 149.532 137.432 149.306C137.352 149.302 137.275 149.281 137.204 149.244C137.134 149.207 137.072 149.155 137.024 149.091C136.976 149.028 136.942 148.954 136.926 148.876C136.909 148.798 136.91 148.718 136.927 148.64C136.908 147.997 136.569 146.561 137.474 146.47C137.745 146.442 140.682 146.606 140.685 146.555Z" stroke="#33313F" stroke-width="2" stroke-miterlimit="10" stroke-linecap="round"/>
<path d="M90.9156 132.458C91.0482 132.444 91.1823 132.459 91.3083 132.503C91.4342 132.547 91.5488 132.618 91.6438 132.712C91.7388 132.806 91.8117 132.92 91.8574 133.045C91.903 133.171 91.9202 133.305 91.9078 133.437C91.5836 137.193 91.8401 141.039 92.2629 144.783C92.4518 146.448 92.7026 148.2 93.3678 149.512C93.4257 149.624 93.4538 149.75 93.4494 149.876C93.445 150.003 93.4082 150.126 93.3425 150.234C93.2769 150.342 93.1846 150.432 93.0746 150.494C92.9645 150.556 92.8403 150.589 92.7139 150.59L80.2329 150.663C80.1584 150.664 80.0847 150.647 80.0174 150.615C79.95 150.583 79.8907 150.537 79.8439 150.479C79.797 150.421 79.7638 150.353 79.7468 150.28C79.7297 150.208 79.7292 150.132 79.7453 150.059C80.7346 145.765 80.5176 141.075 80.1145 136.634C79.9116 134.431 79.7988 133.248 81.4393 133.093C83.1305 132.944 84.8217 132.873 86.4988 132.729C86.8567 132.701 89.4161 132.622 90.9156 132.458Z" fill="white" stroke="#33313F" stroke-width="3" stroke-miterlimit="10" stroke-linecap="round"/>
<path d="M108.279 132.388C108.21 132.377 108.14 132.383 108.075 132.404C108.009 132.425 107.949 132.461 107.899 132.509C107.849 132.557 107.811 132.616 107.788 132.681C107.765 132.746 107.757 132.816 107.766 132.884C108.169 136.815 107.906 140.855 107.464 144.783C107.261 146.586 106.982 148.485 106.187 149.825C106.131 149.92 106.113 150.032 106.134 150.14C106.156 150.248 106.217 150.344 106.305 150.409C106.519 150.544 106.77 150.608 107.021 150.59L119.567 150.663C119.636 150.663 119.704 150.647 119.766 150.617C119.828 150.587 119.882 150.543 119.924 150.488C119.966 150.434 119.995 150.37 120.009 150.303C120.023 150.235 120.021 150.165 120.004 150.099C119.003 145.79 119.218 141.084 119.624 136.626C119.824 134.422 119.939 133.24 118.299 133.085C116.608 132.935 114.916 132.865 113.225 132.721C112.811 132.695 109.626 132.602 108.279 132.388Z" fill="white" stroke="#33313F" stroke-width="3" stroke-miterlimit="10"/>
<path d="M83.4433 134.953L89.8248 143.474" stroke="#33313F" stroke-width="2" stroke-miterlimit="10" stroke-linecap="round"/>
<path d="M89.8248 134.315L83.6548 143.9" stroke="#33313F" stroke-width="2" stroke-miterlimit="10" stroke-linecap="round"/>
<path d="M111.92 135.353L115.396 139.995" stroke="#33313F" stroke-width="2" stroke-miterlimit="10" stroke-linecap="round"/>
<path d="M115.396 135.003L112.036 140.226" stroke="#33313F" stroke-width="2" stroke-miterlimit="10" stroke-linecap="round"/>
<path d="M85.5517 146.197C87.0144 146.128 88.4798 146.146 89.9404 146.25C90.0346 146.26 90.1227 146.302 90.1903 146.369C90.2578 146.435 90.3009 146.523 90.3124 146.617L90.4477 147.771C90.4544 147.797 90.4551 147.824 90.4497 147.851C90.4444 147.877 90.4331 147.902 90.4167 147.923C90.3844 147.943 90.3473 147.953 90.3096 147.952C89.6951 147.968 89.0779 147.895 88.4662 147.952C88.0857 147.98 87.7108 148.053 87.3387 148.095C86.7146 148.151 86.0873 148.162 85.4615 148.129C84.5808 148.145 83.7022 148.036 82.8515 147.808C82.8345 147.808 82.9022 146.854 82.9022 146.761C82.9022 146.315 82.8853 146.278 83.3447 146.264L85.5517 146.197Z" stroke="#33313F" stroke-width="2" stroke-miterlimit="10" stroke-linecap="round"/>
<path d="M112.363 141.936C113.825 141.867 115.291 141.886 116.751 141.992C116.846 142.002 116.935 142.043 117.002 142.11C117.07 142.176 117.113 142.265 117.123 142.359L117.259 143.51C117.265 143.536 117.266 143.564 117.261 143.59C117.255 143.617 117.244 143.641 117.228 143.663C117.197 143.685 117.159 143.695 117.121 143.691C116.506 143.708 115.889 143.635 115.277 143.691C114.897 143.719 114.522 143.795 114.15 143.835C113.526 143.891 112.898 143.903 112.273 143.869C111.391 143.884 110.511 143.776 109.66 143.547C109.646 143.547 109.71 142.593 109.71 142.5C109.71 142.054 109.696 142.018 110.156 142.004L112.363 141.936Z" stroke="#33313F" stroke-width="2" stroke-miterlimit="10" stroke-linecap="round"/>
<path d="M114.598 145.133C113.136 145.065 111.672 145.083 110.212 145.187C110.117 145.196 110.029 145.237 109.961 145.304C109.893 145.371 109.851 145.459 109.84 145.553L109.71 146.705C109.702 146.731 109.701 146.758 109.706 146.785C109.712 146.811 109.724 146.836 109.741 146.857C109.772 146.879 109.811 146.889 109.848 146.885C110.463 146.902 111.077 146.832 111.692 146.885C112.072 146.913 112.447 146.99 112.819 147.032C113.444 147.085 114.071 147.097 114.697 147.066C115.578 147.081 116.458 146.973 117.309 146.744C117.324 146.744 117.259 145.788 117.259 145.697C117.259 145.249 117.276 145.212 116.816 145.201L114.598 145.133Z" stroke="#33313F" stroke-width="2" stroke-miterlimit="10" stroke-linecap="round"/>
<path d="M96.3585 143.045C96.3585 143.045 100.505 142.833 101.249 143.045" stroke="#33313F" stroke-width="3" stroke-miterlimit="10"/>
<path d="M101.254 140.81C101.254 140.81 103.061 142.619 103.061 143.045C103.061 143.471 100.722 144.961 100.722 144.961" stroke="#33313F" stroke-width="3" stroke-miterlimit="10"/>
<path d="M123.477 139.185C123.477 139.185 127.234 137.424 128.003 137.34" stroke="#33313F" stroke-width="3" stroke-miterlimit="10"/>
<path d="M127.163 135.271C127.163 135.271 129.517 136.265 129.678 136.657C129.838 137.049 128.235 139.315 128.235 139.315" stroke="#33313F" stroke-width="3" stroke-miterlimit="10"/>
<path d="M123.437 143.694C123.437 143.694 127.256 145.316 127.834 145.835" stroke="#33313F" stroke-width="3" stroke-miterlimit="10"/>
<path d="M128.81 143.824C128.81 143.824 129.655 146.242 129.458 146.625C129.261 147.009 126.518 147.325 126.518 147.325" stroke="#33313F" stroke-width="3" stroke-miterlimit="10"/>
<path d="M138.261 134.826C138.388 135.136 138.43 135.475 138.382 135.808C138.383 135.834 138.377 135.86 138.365 135.884C138.349 135.899 138.33 135.91 138.31 135.917C138.29 135.925 138.268 135.928 138.246 135.926L135.566 136.03C135.566 136.03 135.718 135.24 135.738 135.184C135.828 134.862 136.065 134.947 136.366 134.93L138.261 134.826Z" fill="white" stroke="#33313F" stroke-width="2" stroke-miterlimit="10" stroke-linecap="round"/>
<path d="M87.6234 159.142L88.5705 158.259L87.7249 158.225L87.2823 158.905L87.6234 159.142Z" fill="#33313F"/>
<path d="M80.8107 165.327L81.8142 164.037L82.0368 163.806L85.1092 160.584L86.1549 159.489L86.6453 159.43L87.35 158.73L87.7644 159.094L87.0794 159.895L87.0907 160.316L86.0224 161.475L83.0065 164.754L82.812 164.963L81.6 166.086L80.8107 165.327Z" fill="#65617D"/>
<path d="M82.0369 163.806L85.1092 160.584L86.0224 161.475L83.0065 164.754L82.0369 163.806Z" fill="#33313F"/>
<path d="M86.6735 165.047C85.7805 164.215 85.0039 163.266 84.3651 162.226C83.0121 160.115 80.7516 158.975 79.2013 158.408V157.723L79.2971 157.703L79.2548 157.065H79.2971L79.1872 155.372V155.358L78.6291 146.958C78.6291 146.958 76.642 141.358 80.1737 136.191C83.7055 131.025 80.3936 126.07 77.0732 124.132C77.0732 124.132 75.5286 115.949 76.8534 114.011C75.0563 112.976 73.2046 112.038 71.3062 111.204C71.2752 111.102 71.2499 111 71.2245 110.893C71.1879 110.131 71.1399 109.37 71.0977 108.608C71.1418 108.212 71.2144 107.819 71.3147 107.434C71.357 107.273 71.4049 107.112 71.4556 106.946C73.0341 106.342 74.3939 105.275 75.3569 103.885C76.32 102.496 76.8415 100.847 76.8534 99.1555C76.8541 98.1686 76.6765 97.1898 76.3291 96.2662C76.5073 95.9727 76.643 95.6554 76.7322 95.3238C76.9436 94.4519 76.704 93.5208 76.2079 92.6377C75.3228 90.7246 73.1158 88.9329 71.5148 88.2699C69.2204 87.3388 65.7676 87.5588 63.3774 87.8466C62.0357 88.0075 60.5052 88.4561 60.0204 89.6863C59.8428 90.1377 59.84 90.6372 59.716 91.0971C59.2142 92.9762 57.0467 93.8509 55.7078 95.2899C54.524 96.5596 54.0166 98.278 53.622 99.9511C52.5229 104.747 52.2607 109.696 52.8469 114.581C52.9822 115.71 53.1626 116.824 53.3543 117.941C52.5481 119.07 51.8209 121.065 52.1535 124.53L49.504 137.018L48.4019 144.34C48.4019 144.34 47.7395 147.353 50.3749 149.938C52.0661 151.586 54.1097 154.371 55.3696 156.174C54.821 157.77 54.5493 159.449 54.5663 161.137C54.5945 161.904 54.6367 162.646 54.6903 163.352C54.8019 164.85 55.0856 166.331 55.5359 167.765C55.8459 170.772 56.4576 174.618 57.6555 177.076L58.0952 190.21C58.0952 190.21 57.4328 202.27 56.1222 204.637C54.8115 207.004 58.9887 227.032 58.9887 227.032V229.831L58.2841 231.902L58.1065 231.769C54.7974 235.86 58.1065 237.367 58.1065 237.367C58.1065 237.367 59.0085 237.409 60.4488 237.466C60.3265 238.04 60.3987 238.638 60.6539 239.166C60.9091 239.695 61.3328 240.123 61.8581 240.383C61.8581 240.383 80.6106 241.244 83.9225 240.383C87.2345 239.523 86.3494 236.506 84.5821 236.715C83.9084 236.8 82.9135 236.622 81.941 236.371C82.9698 235.172 82.1468 233.549 80.8333 233.702C79.0688 233.916 75.0973 232.353 75.0973 232.353L75.0776 232.379C74.9508 232.33 74.8208 232.291 74.6886 232.26C73.2133 231.928 71.756 231.52 70.3225 231.038C69.4769 229.224 67.5039 224.348 68.9132 220.567C69.5502 218.858 69.7588 216.583 69.7588 214.377C69.7924 207.721 70.7709 201.103 72.6648 194.722L75.3115 185.693C75.3115 185.693 79.0632 174.709 79.283 171.695L79.2689 167.31C82.3695 169.285 84.8358 168.693 86.4086 167.77C86.638 167.635 86.8322 167.447 86.9754 167.222C87.1186 166.997 87.2067 166.742 87.2325 166.476C87.2583 166.211 87.2212 165.943 87.124 165.695C87.0269 165.447 86.8725 165.225 86.6735 165.047ZM57.2271 142.193C57.3032 141.877 57.3652 141.533 57.4187 141.169C57.9374 141.169 58.4588 141.169 58.9775 141.152C59.6226 142.463 59.8937 143.928 59.7611 145.384C58.5659 145.014 56.7789 144.109 57.2271 142.207V142.193Z" fill="url(#paint0_linear)"/>
<path d="M59.3242 228.784L58.4786 231.323L61.238 234.086L70.3676 236.21L76.9492 235.573L76.5236 233.233C76.397 232.732 76.1349 232.274 75.766 231.911C75.3972 231.549 74.9357 231.294 74.4321 231.177C71.7262 230.539 66.5681 229.089 65.4829 227.071L59.3242 228.784Z" fill="#DB8B8B"/>
<path opacity="0.1" d="M59.3242 228.784L58.4786 231.323L61.238 234.086L70.3676 236.21L76.9492 235.573L76.5236 233.233C76.397 232.732 76.1349 232.274 75.766 231.911C75.3972 231.549 74.9357 231.294 74.4321 231.177C71.7262 230.539 66.5681 229.089 65.4829 227.071L59.3242 228.784Z" fill="black"/>
<path d="M74.824 234.935L73.5499 233.242L74.824 231.267C74.824 231.267 78.6432 232.81 80.3429 232.599C82.0425 232.387 82.8797 235.361 79.7059 236.21C76.5321 237.059 58.4758 236.21 58.4758 236.21C58.4758 236.21 55.2907 234.723 58.4758 230.686L61.2352 232.81C61.2352 232.81 65.9057 235.35 68.2424 234.935H74.824Z" fill="#2E3037"/>
<path d="M80.5543 238.549L73.9727 239.187L64.8431 237.059L62.0752 234.297L62.3007 233.623L62.6164 232.675L62.9264 231.746L69.0823 230.053C69.3949 230.562 69.8226 230.991 70.331 231.303C72.3294 232.672 75.9232 233.662 78.0316 234.156C78.1189 234.179 78.2091 234.204 78.2937 234.235C78.7399 234.384 79.1415 234.643 79.4613 234.988C79.781 235.333 80.0086 235.753 80.123 236.21L80.5543 238.549Z" fill="#DB8B8B"/>
<path opacity="0.1" d="M80.5543 238.549L73.9727 239.187L64.8431 237.059L62.0752 234.297L62.3007 233.623L64.8375 235.572C64.8375 235.572 69.5108 238.112 71.8446 237.697H78.4234L77.1493 236.004L78.2937 234.235C78.7399 234.384 79.1415 234.643 79.4613 234.988C79.781 235.333 80.0086 235.754 80.123 236.21L80.5543 238.549Z" fill="black"/>
<path d="M78.4233 237.912L77.1493 236.219L78.4233 234.244C78.4233 234.244 82.2454 235.787 83.9422 235.575C85.6391 235.364 86.479 238.338 83.3081 239.19C80.1371 240.042 62.0752 239.19 62.0752 239.19C62.0752 239.19 58.8901 237.7 62.0752 233.662L64.8346 235.787C64.8346 235.787 69.5079 238.326 71.8418 237.914L78.4233 237.912Z" fill="#2E3037"/>
<path d="M73.1243 114.646C73.1243 114.646 62.9349 115.707 64.4203 111.457C64.8367 110.252 64.9442 108.962 64.7332 107.705C64.4693 106.146 63.8543 104.668 62.9349 103.382L72.4873 104.869C71.9148 105.827 71.4793 106.86 71.1935 107.939C70.0548 112.451 73.1243 114.646 73.1243 114.646Z" fill="#DB8B8B"/>
<path d="M55.7163 163.101C55.7163 163.101 55.9277 172.24 58.0501 176.703L58.4758 189.666C58.4758 189.666 57.8387 201.57 56.5647 203.906C55.2907 206.242 59.3242 226.01 59.3242 226.01V229.41C59.3242 229.41 66.1171 231.95 68.0282 228.984L66.1171 203.694L66.9627 168.628L55.7163 163.101Z" fill="#35323E"/>
<path opacity="0.1" d="M55.7135 163.101C55.7135 163.101 55.9249 172.24 58.0473 176.703L58.4729 189.666C58.4729 189.666 57.8359 201.57 56.5619 203.906C55.2879 206.242 59.3213 226.01 59.3213 226.01V229.41C59.3213 229.41 66.1143 231.95 68.0253 228.984L66.1143 203.694L66.9599 168.628L55.7135 163.101Z" fill="black"/>
<path d="M51.4686 133.773L50.1945 137.173L49.1347 144.399C48.9912 145.406 49.0898 146.432 49.4222 147.393C49.7545 148.354 50.3111 149.222 51.0458 149.924C53.5826 152.463 56.9903 157.788 56.9903 157.788L61.0238 145.675C61.0238 145.675 56.9903 145.037 57.6414 142.275C58.2925 139.512 58.0642 134.411 58.0642 134.411L51.4686 133.773Z" fill="#F50057"/>
<path opacity="0.1" d="M70.3395 231.298C67.6138 235.589 63.3774 233.157 62.6248 232.675L62.9349 231.746L69.0908 230.053C69.4041 230.56 69.8317 230.987 70.3395 231.298Z" fill="black"/>
<path d="M78.8574 171.39C78.6432 174.364 75.0353 185.216 75.0353 185.216L72.4986 194.135C70.669 200.437 69.7223 206.962 69.6855 213.525C69.6855 215.7 69.4854 217.946 68.8738 219.633C67.1826 224.309 70.5649 230.686 70.5649 230.686C67.5941 235.999 62.498 232.378 62.498 232.378V228.993C62.498 228.993 58.4757 210.494 59.5384 206.883C60.601 203.271 61.0266 193.492 61.0266 193.492V175.854C57.6232 172.46 55.5549 167.953 55.2005 163.157C55.1497 162.46 55.1075 161.729 55.0821 160.97C54.9101 156.174 58.1826 150.553 59.4623 148.555C59.7723 148.07 59.964 147.799 59.964 147.799L78.7052 155.242L78.7475 155.259V155.985V157.593L78.8574 171.39Z" fill="#35323E"/>
<path opacity="0.1" d="M72.4873 104.869C71.9148 105.827 71.4793 106.86 71.1935 107.939C70.1559 108.335 69.0494 108.518 67.9396 108.478C66.8299 108.438 65.7395 108.175 64.7332 107.705C64.4693 106.146 63.8543 104.668 62.9349 103.382L72.4873 104.869Z" fill="black"/>
<path d="M68.2424 108.058C72.816 108.058 76.5236 104.346 76.5236 99.7678C76.5236 95.1895 72.816 91.478 68.2424 91.478C63.6688 91.478 59.9612 95.1895 59.9612 99.7678C59.9612 104.346 63.6688 108.058 68.2424 108.058Z" fill="#DB8B8B"/>
<path opacity="0.1" d="M78.8574 157.576L78.7644 157.593C69.8631 159.424 58.6928 150.138 58.6928 150.138C58.9932 149.633 59.2515 149.103 59.4651 148.555C59.7752 148.07 59.9668 147.799 59.9668 147.799L78.7052 155.243L78.7531 155.985L78.8574 157.576Z" fill="black"/>
<path d="M76.5208 114.434C76.5208 114.434 64.6317 107.208 60.8096 110.182L55.5021 116.982C55.5021 116.982 52.1056 118.046 52.7426 124.846L50.2058 137.173L57.8472 139.086C57.8472 139.086 62.3063 143.335 58.6928 149.501C58.6928 149.501 69.9448 158.851 78.8631 156.938L78.2204 146.958C78.2204 146.958 76.3094 141.431 79.7058 136.332C83.1023 131.234 79.9172 126.344 76.735 124.431C76.7322 124.423 75.2467 116.344 76.5208 114.434Z" fill="#F50057"/>
<path d="M77.1578 157.788C77.1578 157.788 81.6169 158.634 83.7393 162.04C84.352 163.062 85.1001 163.997 85.9632 164.819C86.155 164.997 86.303 165.216 86.3957 165.461C86.4885 165.705 86.5234 165.968 86.4977 166.228C86.472 166.488 86.3865 166.739 86.2478 166.96C86.1091 167.182 85.921 167.368 85.6983 167.505C84.0071 168.521 81.2674 169.144 77.8061 166.289C71.8503 161.402 77.1578 157.788 77.1578 157.788Z" fill="#DB8B8B"/>
<path opacity="0.1" d="M70.5762 118.461C70.5762 118.461 66.3313 118.035 65.2687 129.087C64.206 140.139 62.5092 142.687 62.5092 142.687C62.5092 142.687 61.4466 148.426 63.9947 151.826C66.5427 155.226 71.4246 162.477 71.4246 162.477C71.4246 162.477 76.735 163.967 77.7948 158.651L71.2132 146.326C71.2132 146.326 70.1534 142.074 72.6987 139.1C75.2439 136.127 77.1578 116.344 70.5762 118.461Z" fill="black"/>
<path d="M71.0019 117.834C71.0019 117.834 66.7542 117.408 65.6943 128.46C64.6345 139.512 62.9349 142.06 62.9349 142.06C62.9349 142.06 61.8723 147.805 64.4203 151.191C66.9684 154.577 71.8503 161.817 71.8503 161.817C71.8503 161.817 77.1578 163.306 78.2204 157.993L71.6389 145.666C71.6389 145.666 70.5763 141.414 73.1243 138.44C75.6724 135.466 77.5778 115.707 71.0019 117.834Z" fill="#F50057"/>
<path opacity="0.1" d="M74.5054 125.797C74.5054 125.797 74.9282 132.385 73.0172 135.999C71.1061 139.614 71.1061 144.286 73.0172 146.837" fill="black"/>
<path opacity="0.1" d="M75.5652 117.727C75.5652 117.727 73.874 116.034 68.9837 115.814C64.0933 115.594 61.9793 114.121 61.9793 114.121" fill="black"/>
<path opacity="0.1" d="M63.7664 89.057C62.4754 89.215 61.0013 89.658 60.5362 90.8741C60.3643 91.3199 60.3614 91.8109 60.2402 92.2849C59.7582 94.1415 57.6724 95.0049 56.3843 96.4241C55.2569 97.6769 54.7467 99.3727 54.3774 101.023C53.3174 105.756 53.061 110.634 53.6192 115.453C54.0336 118.977 54.8792 122.445 55.1187 125.986C55.3583 129.527 54.9214 133.251 52.9878 136.225C52.1422 137.506 51.0599 138.629 50.4708 140.037C51.6884 141.025 53.3684 141.166 54.9355 141.219C56.762 141.281 58.5885 141.281 60.415 141.219C61.3733 141.185 62.3739 141.123 63.1998 140.638C63.8115 140.247 64.3147 139.707 64.6627 139.069C65.7056 137.294 65.9706 135.161 65.9255 133.102C65.8804 131.042 65.5562 128.996 65.5167 126.937C65.497 125.808 65.5844 124.623 66.2299 123.703C66.6949 123.04 67.4024 122.594 68.0084 122.055C70.2831 120.041 71.061 116.807 71.1371 113.768C71.2132 110.729 70.7143 107.685 70.9708 104.657C71.0695 103.47 71.512 102.048 72.6789 101.816C73.0454 101.743 73.4372 101.816 73.7867 101.675C74.7225 101.317 74.6323 99.9962 74.8972 99.0313C75.1988 97.945 76.1233 97.107 76.3827 96.0122C76.9943 93.4418 73.7247 90.3691 71.591 89.4775C69.3783 88.552 66.0551 88.7749 63.7664 89.057Z" fill="black"/>
<path d="M63.5437 88.6338C62.2527 88.7918 60.7786 89.2348 60.3135 90.4481C60.1936 90.9128 60.0995 91.3837 60.0317 91.8589C59.5497 93.7155 57.461 94.5789 56.1729 96.0009C55.0455 97.2509 54.5353 98.9466 54.166 100.6C53.1108 105.337 52.8592 110.218 53.4219 115.038C53.8363 118.562 54.6819 122.033 54.9186 125.571C55.1554 129.109 54.7241 132.836 52.7905 135.81C51.9449 137.091 50.8626 138.214 50.2735 139.622C51.4911 140.613 53.1711 140.751 54.7382 140.805C56.5647 140.867 58.3912 140.867 60.2177 140.805C61.176 140.771 62.1766 140.711 63.0025 140.223C63.6146 139.833 64.1171 139.293 64.4626 138.655C65.5083 136.88 65.7704 134.747 65.7281 132.687C65.6859 130.627 65.3561 128.582 65.3194 126.522C65.2997 125.393 65.3871 124.208 66.0297 123.291C66.4976 122.625 67.2051 122.179 67.8111 121.643C70.083 119.626 70.8637 116.392 70.9398 113.354C71.0159 110.315 70.5142 107.27 70.7707 104.243C70.8722 103.058 71.3147 101.633 72.4788 101.404C72.8481 101.331 73.2399 101.404 73.5894 101.26C74.5252 100.902 74.435 99.5843 74.6999 98.6165C74.9987 97.5302 75.9232 96.695 76.1853 95.6003C76.797 93.027 73.5274 89.9571 71.3936 89.0627C69.1641 88.1316 65.8437 88.3488 63.5437 88.6338Z" fill="#35323E"/>
</g>
<defs>
<linearGradient id="paint0_linear" x1="67.7858" y1="240.778" x2="67.7858" y2="87.6096" gradientUnits="userSpaceOnUse">
<stop stop-color="#808080" stop-opacity="0.25"/>
<stop offset="0.54" stop-color="#808080" stop-opacity="0.12"/>
<stop offset="1" stop-color="#808080" stop-opacity="0.1"/>
</linearGradient>
<clipPath id="clip0">
<rect width="313" height="242" fill="white"/>
</clipPath>
</defs>
</svg>
