<svg width="76" height="79" viewBox="0 0 76 79" fill="none" xmlns="http://www.w3.org/2000/svg">
<path opacity="0.08" d="M63 25C63 41.6667 54.6667 50 38 50C21.3333 50 13 41.6667 13 25C13 8.33333 21.3333 0 38 0C54.6667 0 63 8.33333 63 25Z" fill="black"/>
<g filter="url(#filter0_d)">
<path d="M59.875 25C59.875 39.5833 52.5833 46.875 38 46.875C23.4167 46.875 16.125 39.5833 16.125 25C16.125 10.4167 23.4167 3.125 38 3.125C52.5833 3.125 59.875 10.4167 59.875 25Z" fill="white"/>
</g>
<rect x="26.65" y="13.65" width="22.7" height="22.7" stroke="#888686" stroke-width="1.3"/>
<path d="M40.3534 30.4142L38.932 33.1839L38.4872 32.9556L38 33.9049L37.5128 32.9556L37.068 33.1839L35.3903 29.9148L35.8351 29.6865L34.2273 26.5537L33.7825 26.782L31.732 22.7864L32.1768 22.5581L30.4059 19.1075L29.9611 19.3358L28.5397 16.5661L28.9846 16.3379L28.4263 15.25L29.4718 15.25L29.4718 14.75L32.8271 14.75L32.8271 15.25L36.0427 15.25L36.0427 14.75L40.1437 14.75L40.1437 15.25L43.6855 15.25L43.6855 14.75L46.5282 14.75L46.5282 15.25L47.5737 15.25L47.0154 16.3379L47.4603 16.5661L45.7826 19.8352L45.3377 19.6069L43.73 22.7398L44.1748 22.9681L42.1243 26.9636L41.6795 26.7353L39.9086 30.1859L40.3534 30.4142Z" stroke="#888686" stroke-miterlimit="16" stroke-dasharray="160 122 152 176 138 144"/>
<defs>
<filter id="filter0_d" x="0.125" y="3.125" width="75.75" height="75.75" filterUnits="userSpaceOnUse" color-interpolation-filters="sRGB">
<feFlood flood-opacity="0" result="BackgroundImageFix"/>
<feColorMatrix in="SourceAlpha" type="matrix" values="0 0 0 0 0 0 0 0 0 0 0 0 0 0 0 0 0 0 127 0"/>
<feMorphology radius="8" operator="erode" in="SourceAlpha" result="effect1_dropShadow"/>
<feOffset dy="16"/>
<feGaussianBlur stdDeviation="12"/>
<feColorMatrix type="matrix" values="0 0 0 0 0.295833 0 0 0 0 0.279809 0 0 0 0 0.283655 0 0 0 0.05 0"/>
<feBlend mode="normal" in2="BackgroundImageFix" result="effect1_dropShadow"/>
<feBlend mode="normal" in="SourceGraphic" in2="effect1_dropShadow" result="shape"/>
</filter>
</defs>
</svg>
