<svg width="76" height="79" viewBox="0 0 76 79" fill="none" xmlns="http://www.w3.org/2000/svg">
<path opacity="0.08" d="M63 25C63 41.6667 54.6667 50 38 50C21.3333 50 13 41.6667 13 25C13 8.33333 21.3333 0 38 0C54.6667 0 63 8.33333 63 25Z" fill="black"/>
<g filter="url(#filter0_d)">
<path d="M59.875 25C59.875 39.5833 52.5833 46.875 38 46.875C23.4167 46.875 16.125 39.5833 16.125 25C16.125 10.4167 23.4167 3.125 38 3.125C52.5833 3.125 59.875 10.4167 59.875 25Z" fill="white"/>
</g>
<rect x="26.65" y="13.65" width="22.7" height="22.7" rx="11.35" stroke="#888686" stroke-width="1.3"/>
<path d="M39.9612 32.0936L38.7767 34.4529L38.3299 34.2286L38 34.8856L37.6701 34.2286L37.2233 34.4529L35.8252 31.6682L36.2721 31.4438L34.9323 28.7751L34.4854 28.9994L32.7767 25.5959L33.2235 25.3715L31.7478 22.4321L31.3009 22.6564L30.1165 20.2971L30.5633 20.0727L30.1502 19.25L30.8932 19.25L30.8932 18.75L33.6893 18.75L33.6893 19.25L36.3689 19.25L36.3689 18.75L39.7864 18.75L39.7864 19.25L42.7379 19.25L42.7379 18.75L45.1068 18.75L45.1068 19.25L45.8498 19.25L45.4367 20.0727L45.8836 20.2971L44.4855 23.0818L44.0386 22.8575L42.6988 25.5262L43.1457 25.7506L41.4369 29.1541L40.9901 28.9298L39.5143 31.8693L39.9612 32.0936Z" stroke="#888686" stroke-dasharray="160 122 152 176 138 144"/>
<defs>
<filter id="filter0_d" x="0.125" y="3.125" width="75.75" height="75.75" filterUnits="userSpaceOnUse" color-interpolation-filters="sRGB">
<feFlood flood-opacity="0" result="BackgroundImageFix"/>
<feColorMatrix in="SourceAlpha" type="matrix" values="0 0 0 0 0 0 0 0 0 0 0 0 0 0 0 0 0 0 127 0"/>
<feMorphology radius="8" operator="erode" in="SourceAlpha" result="effect1_dropShadow"/>
<feOffset dy="16"/>
<feGaussianBlur stdDeviation="12"/>
<feColorMatrix type="matrix" values="0 0 0 0 0.295833 0 0 0 0 0.279809 0 0 0 0 0.283655 0 0 0 0.05 0"/>
<feBlend mode="normal" in2="BackgroundImageFix" result="effect1_dropShadow"/>
<feBlend mode="normal" in="SourceGraphic" in2="effect1_dropShadow" result="shape"/>
</filter>
</defs>
</svg>
