<svg id="Layer_1" enable-background="new 0 0 512.068 512.068" height="512" viewBox="0 0 512.068 512.068" width="512" xmlns="http://www.w3.org/2000/svg"><g><path d="m312.233.034c-22.832 0-43.188 10.795-56.233 27.553-30.653-40.481-95.194-35.003-118.805 9.664h237.609c-12.091-22.153-35.604-37.217-62.571-37.217z"/><path d="m378.344 104.467c3.576-10.924 5.635-24.197 5.003-37.217h-254.694c-.637 13.015 1.454 26.268 5.049 37.217z"/><path d="m186.657 171.684h138.558c13.013-9.963 26.845-21.997 37.767-37.217h-213.968c11.118 15.595 25.111 27.681 37.643 37.217z"/><path d="m241 223.901c.738 19.879 29.268 19.868 30 0 0-7.352 5.718-14.616 14.382-22.217h-58.764c8.664 7.601 14.382 14.865 14.382 22.217z"/><path d="m508.999 375.567-73.418-97.891c-20.751 11.037-49.212 11.037-69.964 0l-73.418 97.891c-11.335 16.332 11.485 33.461 24 18 0 0 25.698-34.264 25.698-34.264-11.447 33.003-20.565 66.512-20.565 89.531 0 8.284 6.716 15 15 15h17.375v33.2c0 8.284 6.716 15 15 15s15-6.716 15-15v-33.2h34.267v33.2c0 8.284 6.716 15 15 15s15-6.716 15-15v-33.2h16.892c8.284 0 15-6.716 15-15 0-23.019-9.118-56.528-20.565-89.531l25.698 34.264c12.609 15.517 35.319-1.785 24-18z"/><path d="m352.932 208.367c0 26.283 21.384 47.667 47.667 47.667 63.149-2.396 63.133-92.947-.001-95.333-26.282 0-47.666 21.383-47.666 47.666z"/><path d="m170.896 258.22c-29.792 36.828-89.214 36.813-118.993-.001-31.135 19.672-51.903 54.368-51.903 94.216v32.133c0 8.284 6.716 15 15 15s15-6.716 15-15v-32.133c0-27.622 13.62-51.737 34.321-66.408-.22 2.288.045 208.638-.055 211.01 0 8.281 6.716 14.997 15 14.997s15-6.716 15-15v-97.467h34.267v97.467c0 8.284 6.716 15 15 15s15-6.716 15-15c-.112-4.035.148-206.703-.054-211.009 20.714 14.683 34.321 38.819 34.321 66.409v32.133c0 8.284 6.716 15 15 15s15-6.716 15-15v-32.133c0-39.894-20.789-74.559-51.904-94.214z"/><path d="m111.4 256.034c26.283 0 47.667-21.384 47.667-47.667-2.396-63.149-92.947-63.131-95.333.001-.001 26.283 21.382 47.666 47.666 47.666z"/></g></svg>