<svg width="99" height="99" viewBox="0 0 99 99" fill="none" xmlns="http://www.w3.org/2000/svg">
<g clip-path="url(#clip0)">
<path d="M49.332 63.854C55.0189 63.854 59.629 59.2439 59.629 53.557C59.629 47.8701 55.0189 43.26 49.332 43.26C43.6452 43.26 39.035 47.8701 39.035 53.557C39.035 59.2439 43.6452 63.854 49.332 63.854Z" fill="#2A303F"/>
<path d="M53.7 64.556H44.963C37.694 64.556 31.78 70.472 31.78 77.74V88.428L31.807 88.594L32.542 88.823C39.479 90.991 45.507 91.715 50.469 91.715C60.157 91.715 65.772 88.951 66.119 88.777L66.807 88.426L66.878 88.428V77.739C66.883 70.472 60.971 64.556 53.7 64.556Z" fill="#2A303F"/>
<path d="M28.312 40.174C37.4861 40.174 44.923 32.737 44.923 23.563C44.923 14.389 37.4861 6.95203 28.312 6.95203C19.138 6.95203 11.701 14.389 11.701 23.563C11.701 32.737 19.138 40.174 28.312 40.174Z" fill="#2A303F"/>
<path d="M70.35 40.174C79.524 40.174 86.959 32.734 86.959 23.561C86.959 14.391 79.521 6.95203 70.35 6.95203C61.174 6.95203 53.74 14.389 53.74 23.561C53.74 32.733 61.174 40.174 70.35 40.174Z" fill="#2A303F"/>
<path d="M41.258 62.9361C38.621 60.6621 36.944 57.3041 36.944 53.5581C36.944 48.9641 39.463 44.9541 43.187 42.8151C40.762 41.8501 38.126 41.3041 35.361 41.3041H21.266C9.54 41.3031 0 50.8471 0 62.5711V79.8121L0.043 80.0811L1.23 80.4501C12.212 83.8821 21.772 85.0631 29.688 85.1061V77.7391C29.688 70.5951 34.623 64.5991 41.258 62.9361Z" fill="#2A303F"/>
<path d="M77.398 41.303H63.305C60.54 41.303 57.907 41.849 55.481 42.814C59.208 44.953 61.727 48.961 61.727 53.557C61.727 57.301 60.049 60.659 57.414 62.933C60.07 63.594 62.515 64.953 64.502 66.941C67.39 69.831 68.981 73.667 68.98 77.741V85.106C76.896 85.063 86.457 83.881 97.437 80.45L98.624 80.081L98.668 79.812V62.571C98.664 50.847 89.124 41.303 77.398 41.303Z" fill="#2A303F"/>
</g>
<defs>
<clipPath id="clip0">
<rect width="98.666" height="98.666" fill="white"/>
</clipPath>
</defs>
</svg>
