<svg width="76" height="79" viewBox="0 0 76 79" fill="none" xmlns="http://www.w3.org/2000/svg">
<path opacity="0.08" d="M63 25C63 41.6667 54.6667 50 38 50C21.3333 50 13 41.6667 13 25C13 8.33333 21.3333 0 38 0C54.6667 0 63 8.33333 63 25Z" fill="black"/>
<g filter="url(#filter0_d)">
<path d="M59.875 25C59.875 39.5833 52.5833 46.875 38 46.875C23.4167 46.875 16.125 39.5833 16.125 25C16.125 10.4167 23.4167 3.125 38 3.125C52.5833 3.125 59.875 10.4167 59.875 25Z" fill="white"/>
</g>
<rect x="28.65" y="15.65" width="19.7" height="19.7" rx="9.85" stroke="#888686" stroke-width="1.3"/>
<defs>
<filter id="filter0_d" x="0.125" y="3.125" width="75.75" height="75.75" filterUnits="userSpaceOnUse" color-interpolation-filters="sRGB">
<feFlood flood-opacity="0" result="BackgroundImageFix"/>
<feColorMatrix in="SourceAlpha" type="matrix" values="0 0 0 0 0 0 0 0 0 0 0 0 0 0 0 0 0 0 127 0"/>
<feMorphology radius="8" operator="erode" in="SourceAlpha" result="effect1_dropShadow"/>
<feOffset dy="16"/>
<feGaussianBlur stdDeviation="12"/>
<feColorMatrix type="matrix" values="0 0 0 0 0.295833 0 0 0 0 0.279809 0 0 0 0 0.283655 0 0 0 0.05 0"/>
<feBlend mode="normal" in2="BackgroundImageFix" result="effect1_dropShadow"/>
<feBlend mode="normal" in="SourceGraphic" in2="effect1_dropShadow" result="shape"/>
</filter>
</defs>
</svg>
