<svg width="269" height="51" viewBox="0 0 269 51" fill="none" xmlns="http://www.w3.org/2000/svg">
<g filter="url(#filter0_d)">
<path d="M22.2251 19.2393H28.4148C28.3253 13.7955 23.8509 10.0369 17.0497 10.0369C10.353 10.0369 5.44602 13.7358 5.47585 19.2841C5.46094 23.7884 8.63778 26.3686 13.7983 27.6065L17.1243 28.4418C20.4503 29.2472 22.2997 30.2017 22.3146 32.2599C22.2997 34.4972 20.1818 36.0185 16.9006 36.0185C13.5447 36.0185 11.1286 34.4673 10.9197 31.4098H4.67045C4.83452 38.017 9.5625 41.4325 16.9751 41.4325C24.4325 41.4325 28.8175 37.8679 28.8324 32.2749C28.8175 27.1889 24.9844 24.4893 19.6747 23.2962L16.9304 22.6399C14.2756 22.0284 12.0533 21.044 12.098 18.8516C12.098 16.8828 13.843 15.4361 17.005 15.4361C20.0923 15.4361 21.9865 16.8381 22.2251 19.2393ZM37.744 41L40.011 34.0348H51.033L53.3001 41H60.2205L49.6907 10.4545H41.3683L30.8235 41H37.744ZM41.6516 28.9936L45.4102 17.4347H45.6488L49.4073 28.9936H41.6516ZM82.7157 20.3281H89.2782C88.443 14.2876 83.1184 10.0369 76.2129 10.0369C68.144 10.0369 61.9245 15.8537 61.9245 25.7571C61.9245 35.4219 67.7413 41.4176 76.3471 41.4176C84.0581 41.4176 89.5616 36.5405 89.5616 28.5014V24.6534H76.7797V29.5156H83.3422C83.2527 33.304 80.6724 35.7053 76.377 35.7053C71.5297 35.7053 68.4721 32.081 68.4721 25.6974C68.4721 19.3438 71.649 15.7493 76.3173 15.7493C79.6433 15.7493 81.8954 17.4645 82.7157 20.3281Z" fill="white"/>
<path d="M103.287 12.8182H104.565C104.507 11.1722 102.989 9.94176 100.879 9.94176C98.7912 9.94176 97.1506 11.1562 97.1506 12.9886C97.1506 14.4588 98.2159 15.3324 99.9205 15.8224L101.263 16.206C102.413 16.5256 103.436 16.9304 103.436 18.017C103.436 19.2102 102.286 19.9986 100.773 19.9986C99.473 19.9986 98.3224 19.4233 98.2159 18.1875H96.8523C96.9801 19.9773 98.429 21.1918 100.773 21.1918C103.287 21.1918 104.714 19.8068 104.714 18.0384C104.714 15.9929 102.776 15.3324 101.646 15.0341L100.538 14.7358C99.7287 14.5227 98.429 14.0966 98.429 12.9247C98.429 11.8807 99.3878 11.1136 100.837 11.1136C102.158 11.1136 103.159 11.7422 103.287 12.8182ZM106.716 21H107.973V12.8182H106.716V21ZM107.355 11.4545C107.845 11.4545 108.25 11.071 108.25 10.6023C108.25 10.1335 107.845 9.75 107.355 9.75C106.865 9.75 106.46 10.1335 106.46 10.6023C106.46 11.071 106.865 11.4545 107.355 11.4545ZM113.834 12.8182H112.087V10.858H110.83V12.8182H109.594V13.8835H110.83V18.9972C110.83 20.4247 111.98 21.1065 113.045 21.1065C113.514 21.1065 113.812 21.0213 113.983 20.9574L113.727 19.8281C113.621 19.8494 113.45 19.892 113.173 19.892C112.619 19.892 112.087 19.7216 112.087 18.6562V13.8835H113.834V12.8182ZM119.067 21.1705C120.729 21.1705 121.944 20.3395 122.327 19.1037L121.113 18.7628C120.793 19.6151 120.053 20.0412 119.067 20.0412C117.592 20.0412 116.574 19.0877 116.516 17.3352H122.455V16.8026C122.455 13.7557 120.644 12.7116 118.939 12.7116C116.724 12.7116 115.253 14.4588 115.253 16.973C115.253 19.4872 116.702 21.1705 119.067 21.1705ZM116.516 16.2486C116.601 14.9755 117.501 13.8409 118.939 13.8409C120.303 13.8409 121.177 14.8636 121.177 16.2486H116.516ZM124.367 21H125.624V15.8864C125.624 14.6879 126.498 13.8409 127.478 13.8409C128.432 13.8409 129.097 14.4641 129.097 15.3963V21H130.376V15.6733C130.376 14.6186 131.036 13.8409 132.187 13.8409C133.082 13.8409 133.849 14.315 133.849 15.5241V21H135.106V15.5241C135.106 13.6012 134.073 12.7116 132.613 12.7116C131.441 12.7116 130.584 13.2496 130.163 14.0966H130.078C129.673 13.223 128.959 12.7116 127.883 12.7116C126.818 12.7116 126.029 13.223 125.688 14.0966H125.582V12.8182H124.367V21ZM139.812 21.1918C141.24 21.1918 141.985 20.4247 142.241 19.892H142.305V21H143.562V15.6094C143.562 13.0099 141.581 12.7116 140.537 12.7116C139.301 12.7116 137.895 13.1378 137.255 14.6293L138.449 15.0554C138.725 14.4588 139.381 13.8196 140.579 13.8196C141.735 13.8196 142.305 14.4322 142.305 15.4815V15.5241C142.305 16.1314 141.687 16.0781 140.196 16.2699C138.678 16.467 137.021 16.8026 137.021 18.6776C137.021 20.2756 138.257 21.1918 139.812 21.1918ZM140.004 20.0625C139.002 20.0625 138.278 19.6151 138.278 18.7415C138.278 17.7827 139.152 17.4844 140.132 17.3565C140.664 17.2926 142.092 17.1435 142.305 16.8878V18.0384C142.305 19.0611 141.495 20.0625 140.004 20.0625ZM150.075 24.0682H151.332V19.7429H151.439C151.716 20.1903 152.249 21.1705 153.825 21.1705C155.871 21.1705 157.298 19.5298 157.298 16.9304C157.298 14.3523 155.871 12.7116 153.804 12.7116C152.206 12.7116 151.716 13.6918 151.439 14.1179H151.29V12.8182H150.075V24.0682ZM151.311 16.9091C151.311 15.0767 152.121 13.8409 153.655 13.8409C155.253 13.8409 156.041 15.1832 156.041 16.9091C156.041 18.6562 155.232 20.0412 153.655 20.0412C152.142 20.0412 151.311 18.7628 151.311 16.9091ZM161.624 21.1918C163.051 21.1918 163.797 20.4247 164.053 19.892H164.117V21H165.374V15.6094C165.374 13.0099 163.392 12.7116 162.348 12.7116C161.112 12.7116 159.706 13.1378 159.067 14.6293L160.26 15.0554C160.537 14.4588 161.192 13.8196 162.391 13.8196C163.547 13.8196 164.117 14.4322 164.117 15.4815V15.5241C164.117 16.1314 163.499 16.0781 162.007 16.2699C160.489 16.467 158.832 16.8026 158.832 18.6776C158.832 20.2756 160.068 21.1918 161.624 21.1918ZM161.815 20.0625C160.814 20.0625 160.09 19.6151 160.09 18.7415C160.09 17.7827 160.963 17.4844 161.943 17.3565C162.476 17.2926 163.903 17.1435 164.117 16.8878V18.0384C164.117 19.0611 163.307 20.0625 161.815 20.0625ZM167.668 21H168.925V15.8224C168.925 14.7145 169.799 13.9048 170.992 13.9048C171.328 13.9048 171.674 13.9688 171.759 13.9901V12.7116C171.615 12.701 171.285 12.6903 171.099 12.6903C170.118 12.6903 169.266 13.2443 168.968 14.054H168.883V12.8182H167.668V21ZM175.657 21.1918C177.084 21.1918 177.83 20.4247 178.086 19.892H178.15V21H179.407V15.6094C179.407 13.0099 177.425 12.7116 176.381 12.7116C175.146 12.7116 173.739 13.1378 173.1 14.6293L174.293 15.0554C174.57 14.4588 175.225 13.8196 176.424 13.8196C177.58 13.8196 178.15 14.4322 178.15 15.4815V15.5241C178.15 16.1314 177.532 16.0781 176.04 16.2699C174.522 16.467 172.866 16.8026 172.866 18.6776C172.866 20.2756 174.101 21.1918 175.657 21.1918ZM175.849 20.0625C174.847 20.0625 174.123 19.6151 174.123 18.7415C174.123 17.7827 174.996 17.4844 175.976 17.3565C176.509 17.2926 177.937 17.1435 178.15 16.8878V18.0384C178.15 19.0611 177.34 20.0625 175.849 20.0625ZM188.328 21.1918C189.755 21.1918 190.501 20.4247 190.757 19.892H190.821V21H192.078V15.6094C192.078 13.0099 190.096 12.7116 189.052 12.7116C187.816 12.7116 186.41 13.1378 185.771 14.6293L186.964 15.0554C187.241 14.4588 187.896 13.8196 189.095 13.8196C190.251 13.8196 190.821 14.4322 190.821 15.4815V15.5241C190.821 16.1314 190.203 16.0781 188.711 16.2699C187.193 16.467 185.537 16.8026 185.537 18.6776C185.537 20.2756 186.772 21.1918 188.328 21.1918ZM188.52 20.0625C187.518 20.0625 186.794 19.6151 186.794 18.7415C186.794 17.7827 187.667 17.4844 188.647 17.3565C189.18 17.2926 190.608 17.1435 190.821 16.8878V18.0384C190.821 19.0611 190.011 20.0625 188.52 20.0625ZM199.528 17.6548C199.528 19.1889 198.357 19.892 197.419 19.892C196.375 19.892 195.629 19.125 195.629 17.9318V12.8182H194.372V18.017C194.372 20.1051 195.48 21.1065 197.014 21.1065C198.25 21.1065 199.06 20.446 199.443 19.6151H199.528V21H200.786V12.8182H199.528V17.6548ZM206.646 12.8182H204.899V10.858H203.642V12.8182H202.406V13.8835H203.642V18.9972C203.642 20.4247 204.793 21.1065 205.858 21.1065C206.327 21.1065 206.625 21.0213 206.795 20.9574L206.54 19.8281C206.433 19.8494 206.263 19.892 205.986 19.892C205.432 19.892 204.899 19.7216 204.899 18.6562V13.8835H206.646V12.8182ZM211.773 21.1705C213.989 21.1705 215.481 19.4872 215.481 16.9517C215.481 14.3949 213.989 12.7116 211.773 12.7116C209.557 12.7116 208.066 14.3949 208.066 16.9517C208.066 19.4872 209.557 21.1705 211.773 21.1705ZM211.773 20.0412C210.09 20.0412 209.323 18.5923 209.323 16.9517C209.323 15.3111 210.09 13.8409 211.773 13.8409C213.456 13.8409 214.224 15.3111 214.224 16.9517C214.224 18.5923 213.456 20.0412 211.773 20.0412ZM217.4 21H218.657V15.8864C218.657 14.6879 219.53 13.8409 220.51 13.8409C221.464 13.8409 222.13 14.4641 222.13 15.3963V21H223.408V15.6733C223.408 14.6186 224.069 13.8409 225.219 13.8409C226.114 13.8409 226.881 14.315 226.881 15.5241V21H228.138V15.5241C228.138 13.6012 227.105 12.7116 225.645 12.7116C224.473 12.7116 223.616 13.2496 223.195 14.0966H223.11C222.705 13.223 221.991 12.7116 220.915 12.7116C219.85 12.7116 219.062 13.223 218.721 14.0966H218.614V12.8182H217.4V21ZM232.844 21.1918C234.272 21.1918 235.018 20.4247 235.273 19.892H235.337V21H236.594V15.6094C236.594 13.0099 234.613 12.7116 233.569 12.7116C232.333 12.7116 230.927 13.1378 230.288 14.6293L231.481 15.0554C231.758 14.4588 232.413 13.8196 233.611 13.8196C234.767 13.8196 235.337 14.4322 235.337 15.4815V15.5241C235.337 16.1314 234.719 16.0781 233.228 16.2699C231.71 16.467 230.053 16.8026 230.053 18.6776C230.053 20.2756 231.289 21.1918 232.844 21.1918ZM233.036 20.0625C232.035 20.0625 231.31 19.6151 231.31 18.7415C231.31 17.7827 232.184 17.4844 233.164 17.3565C233.697 17.2926 235.124 17.1435 235.337 16.8878V18.0384C235.337 19.0611 234.528 20.0625 233.036 20.0625ZM242.623 21.1491C244.205 20.9947 245.233 19.9506 245.43 18.6136H244.173C243.939 19.5085 243.193 20.0412 242.213 20.0412C240.721 20.0412 239.762 18.8054 239.762 16.9091C239.762 15.0554 240.743 13.8409 242.213 13.8409C243.321 13.8409 243.981 14.5227 244.173 15.2685H245.43C245.217 13.7344 243.917 12.7116 242.191 12.7116C239.975 12.7116 238.505 14.4588 238.505 16.9517C238.505 19.1676 239.656 20.8295 241.584 21.1225L241.403 22.0014C242.213 22.0653 242.554 22.1932 242.554 22.6832C242.554 23.1733 242.064 23.3651 241.403 23.3651L241.446 24.196C242.916 24.196 243.683 23.5568 243.683 22.6406C243.683 21.8097 243.129 21.4688 242.575 21.3835L242.623 21.1491ZM249.675 21.1918C251.103 21.1918 251.849 20.4247 252.104 19.892H252.168V21H253.425V15.6094C253.425 13.0099 251.444 12.7116 250.4 12.7116C249.164 12.7116 247.758 13.1378 247.119 14.6293L248.312 15.0554C248.589 14.4588 249.244 13.8196 250.442 13.8196C251.598 13.8196 252.168 14.4322 252.168 15.4815V15.5241C252.168 16.1314 251.55 16.0781 250.059 16.2699C248.541 16.467 246.884 16.8026 246.884 18.6776C246.884 20.2756 248.12 21.1918 249.675 21.1918ZM249.867 20.0625C248.866 20.0625 248.141 19.6151 248.141 18.7415C248.141 17.7827 249.015 17.4844 249.995 17.3565C250.528 17.2926 251.955 17.1435 252.168 16.8878V18.0384C252.168 19.0611 251.359 20.0625 249.867 20.0625ZM248.844 11.8381C248.844 11.3906 249.143 11.0284 249.548 11.0284C250.357 11.0284 250.506 11.7102 251.487 11.7102C252.403 11.7102 253.106 11.0071 253.106 9.89915L252.147 9.81392C252.147 10.2614 251.827 10.6236 251.423 10.6236C250.656 10.6236 250.293 9.94176 249.484 9.94176C248.567 9.94176 247.864 10.7088 247.864 11.7955L248.844 11.8381ZM259.044 21.1705C261.26 21.1705 262.751 19.4872 262.751 16.9517C262.751 14.3949 261.26 12.7116 259.044 12.7116C256.828 12.7116 255.336 14.3949 255.336 16.9517C255.336 19.4872 256.828 21.1705 259.044 21.1705ZM259.044 20.0412C257.361 20.0412 256.593 18.5923 256.593 16.9517C256.593 15.3111 257.361 13.8409 259.044 13.8409C260.727 13.8409 261.494 15.3111 261.494 16.9517C261.494 18.5923 260.727 20.0412 259.044 20.0412ZM100.24 39.1705C101.817 39.1705 102.349 38.1903 102.626 37.7429H102.776V39H103.99V28.0909H102.733V32.1179H102.626C102.349 31.6918 101.859 30.7116 100.261 30.7116C98.1946 30.7116 96.767 32.3523 96.767 34.9304C96.767 37.5298 98.1946 39.1705 100.24 39.1705ZM100.411 38.0412C98.8338 38.0412 98.0241 36.6562 98.0241 34.9091C98.0241 33.1832 98.8125 31.8409 100.411 31.8409C101.945 31.8409 102.754 33.0767 102.754 34.9091C102.754 36.7628 101.923 38.0412 100.411 38.0412ZM109.897 39.1705C111.559 39.1705 112.774 38.3395 113.157 37.1037L111.943 36.7628C111.623 37.6151 110.883 38.0412 109.897 38.0412C108.422 38.0412 107.404 37.0877 107.346 35.3352H113.285V34.8026C113.285 31.7557 111.474 30.7116 109.77 30.7116C107.554 30.7116 106.083 32.4588 106.083 34.973C106.083 37.4872 107.532 39.1705 109.897 39.1705ZM107.346 34.2486C107.431 32.9755 108.331 31.8409 109.77 31.8409C111.133 31.8409 112.007 32.8636 112.007 34.2486H107.346ZM122.719 42.2386C124.679 42.2386 126.256 41.3438 126.256 39.2344V30.8182H125.041V32.1179H124.913C124.636 31.6918 124.125 30.7116 122.527 30.7116C120.46 30.7116 119.033 32.3523 119.033 34.8665C119.033 37.4233 120.524 38.8722 122.506 38.8722C124.104 38.8722 124.615 37.9347 124.892 37.4872H124.999V39.1491C124.999 40.5128 124.04 41.1307 122.719 41.1307C121.233 41.1307 120.711 40.3477 120.375 39.8949L119.374 40.598C119.885 41.4556 120.892 42.2386 122.719 42.2386ZM122.676 37.7429C121.099 37.7429 120.29 36.5497 120.29 34.8452C120.29 33.1832 121.078 31.8409 122.676 31.8409C124.21 31.8409 125.02 33.0767 125.02 34.8452C125.02 36.6562 124.189 37.7429 122.676 37.7429ZM131.987 39.1705C133.649 39.1705 134.864 38.3395 135.247 37.1037L134.033 36.7628C133.713 37.6151 132.973 38.0412 131.987 38.0412C130.512 38.0412 129.494 37.0877 129.436 35.3352H135.375V34.8026C135.375 31.7557 133.564 30.7116 131.859 30.7116C129.643 30.7116 128.173 32.4588 128.173 34.973C128.173 37.4872 129.622 39.1705 131.987 39.1705ZM129.436 34.2486C129.521 32.9755 130.421 31.8409 131.859 31.8409C133.223 31.8409 134.097 32.8636 134.097 34.2486H129.436ZM138.544 34.0781C138.544 32.6506 139.429 31.8409 140.632 31.8409C141.799 31.8409 142.507 32.6026 142.507 33.8864V39H143.765V33.8011C143.765 31.7131 142.651 30.7116 140.995 30.7116C139.759 30.7116 138.992 31.2656 138.608 32.0966H138.502V30.8182H137.287V39H138.544V34.0781ZM149.386 39.1705C151.601 39.1705 153.093 37.4872 153.093 34.9517C153.093 32.3949 151.601 30.7116 149.386 30.7116C147.17 30.7116 145.678 32.3949 145.678 34.9517C145.678 37.4872 147.17 39.1705 149.386 39.1705ZM149.386 38.0412C147.702 38.0412 146.935 36.5923 146.935 34.9517C146.935 33.3111 147.702 31.8409 149.386 31.8409C151.069 31.8409 151.836 33.3111 151.836 34.9517C151.836 36.5923 151.069 38.0412 149.386 38.0412ZM158.314 42.2386C160.275 42.2386 161.851 41.3438 161.851 39.2344V30.8182H160.637V32.1179H160.509C160.232 31.6918 159.721 30.7116 158.123 30.7116C156.056 30.7116 154.628 32.3523 154.628 34.8665C154.628 37.4233 156.12 38.8722 158.101 38.8722C159.699 38.8722 160.211 37.9347 160.488 37.4872H160.594V39.1491C160.594 40.5128 159.635 41.1307 158.314 41.1307C156.828 41.1307 156.306 40.3477 155.971 39.8949L154.969 40.598C155.481 41.4556 156.487 42.2386 158.314 42.2386ZM158.272 37.7429C156.695 37.7429 155.885 36.5497 155.885 34.8452C155.885 33.1832 156.674 31.8409 158.272 31.8409C159.806 31.8409 160.616 33.0767 160.616 34.8452C160.616 36.6562 159.785 37.7429 158.272 37.7429ZM164.153 39H165.41V33.8224C165.41 32.7145 166.283 31.9048 167.476 31.9048C167.812 31.9048 168.158 31.9688 168.243 31.9901V30.7116C168.1 30.701 167.769 30.6903 167.583 30.6903C166.603 30.6903 165.751 31.2443 165.452 32.054H165.367V30.8182H164.153V39ZM172.141 39.1918C173.569 39.1918 174.315 38.4247 174.57 37.892H174.634V39H175.891V33.6094C175.891 31.0099 173.91 30.7116 172.866 30.7116C171.63 30.7116 170.224 31.1378 169.584 32.6293L170.778 33.0554C171.055 32.4588 171.71 31.8196 172.908 31.8196C174.064 31.8196 174.634 32.4322 174.634 33.4815V33.5241C174.634 34.1314 174.016 34.0781 172.525 34.2699C171.007 34.467 169.35 34.8026 169.35 36.6776C169.35 38.2756 170.586 39.1918 172.141 39.1918ZM172.333 38.0625C171.332 38.0625 170.607 37.6151 170.607 36.7415C170.607 35.7827 171.481 35.4844 172.461 35.3565C172.994 35.2926 174.421 35.1435 174.634 34.8878V36.0384C174.634 37.0611 173.824 38.0625 172.333 38.0625ZM178.186 39H179.443V33.8864C179.443 32.6879 180.316 31.8409 181.297 31.8409C182.25 31.8409 182.916 32.4641 182.916 33.3963V39H184.194V33.6733C184.194 32.6186 184.855 31.8409 186.005 31.8409C186.9 31.8409 187.667 32.315 187.667 33.5241V39H188.924V33.5241C188.924 31.6012 187.891 30.7116 186.431 30.7116C185.26 30.7116 184.402 31.2496 183.981 32.0966H183.896C183.491 31.223 182.777 30.7116 181.701 30.7116C180.636 30.7116 179.848 31.223 179.507 32.0966H179.4V30.8182H178.186V39ZM193.631 39.1918C195.058 39.1918 195.804 38.4247 196.059 37.892H196.123V39H197.381V33.6094C197.381 31.0099 195.399 30.7116 194.355 30.7116C193.119 30.7116 191.713 31.1378 191.074 32.6293L192.267 33.0554C192.544 32.4588 193.199 31.8196 194.398 31.8196C195.553 31.8196 196.123 32.4322 196.123 33.4815V33.5241C196.123 34.1314 195.506 34.0781 194.014 34.2699C192.496 34.467 190.839 34.8026 190.839 36.6776C190.839 38.2756 192.075 39.1918 193.631 39.1918ZM193.822 38.0625C192.821 38.0625 192.096 37.6151 192.096 36.7415C192.096 35.7827 192.97 35.4844 193.95 35.3565C194.483 35.2926 195.91 35.1435 196.123 34.8878V36.0384C196.123 37.0611 195.314 38.0625 193.822 38.0625ZM205.47 32.6506C205.076 31.4893 204.192 30.7116 202.573 30.7116C200.847 30.7116 199.568 31.6918 199.568 33.0767C199.568 34.206 200.24 34.9624 201.742 35.3139L203.105 35.6335C203.931 35.8253 204.32 36.2195 204.32 36.7841C204.32 37.4872 203.574 38.0625 202.402 38.0625C201.374 38.0625 200.73 37.6204 200.506 36.7415L199.313 37.0398C199.606 38.43 200.751 39.1705 202.424 39.1705C204.325 39.1705 205.62 38.1317 205.62 36.7202C205.62 35.5803 204.906 34.8612 203.446 34.5043L202.232 34.206C201.262 33.9663 200.826 33.6413 200.826 33.0128C200.826 32.3097 201.571 31.7983 202.573 31.7983C203.67 31.7983 204.123 32.4055 204.341 32.9702L205.47 32.6506Z" fill="white"/>
</g>
<defs>
<filter id="filter0_d" x="0.67041" y="9.75" width="266.081" height="40.4886" filterUnits="userSpaceOnUse" color-interpolation-filters="sRGB">
<feFlood flood-opacity="0" result="BackgroundImageFix"/>
<feColorMatrix in="SourceAlpha" type="matrix" values="0 0 0 0 0 0 0 0 0 0 0 0 0 0 0 0 0 0 127 0"/>
<feOffset dy="4"/>
<feGaussianBlur stdDeviation="2"/>
<feColorMatrix type="matrix" values="0 0 0 0 0 0 0 0 0 0 0 0 0 0 0 0 0 0 0.25 0"/>
<feBlend mode="normal" in2="BackgroundImageFix" result="effect1_dropShadow"/>
<feBlend mode="normal" in="SourceGraphic" in2="effect1_dropShadow" result="shape"/>
</filter>
</defs>
</svg>
